<svg id="Layer_1" data-name="Layer 1" xmlns="http://www.w3.org/2000/svg" viewBox="0 0 105.33 23.5"><defs><style>.cls-1{fill:#fff;}</style></defs><title>expressjs</title><path class="cls-1" d="M40,41.75v-23h1.25v3.63a4.74,4.74,0,0,0,.41-0.51,6.2,6.2,0,0,1,5.65-3.51,6.64,6.64,0,0,1,6.53,3.51,11.27,11.27,0,0,1,.27,10.33c-1.27,2.84-4.4,4.26-7.75,3.74a6.27,6.27,0,0,1-5-3.3v9.17H40Zm1.25-14.89,0.28,2.71c0.49,3.08,2.31,4.9,5.17,5.24a5.88,5.88,0,0,0,6.46-3.74,10,10,0,0,0-.22-8.24,5.76,5.76,0,0,0-6.07-3.35,5.61,5.61,0,0,0-5,4.14,28.62,28.62,0,0,0-.61,3.23h0ZM80.75,30a6.74,6.74,0,0,1-6.59,6c-5.24.26-7.7-3.22-8.09-7.23a11.59,11.59,0,0,1,1-6.38,7.12,7.12,0,0,1,7.41-4,6.81,6.81,0,0,1,6,5.18,35,35,0,0,1,.59,3.83H67.36c-0.25,3.64,1.7,6.57,4.48,7.28,3.46,0.85,6.41-.65,7.48-3.93A0.94,0.94,0,0,1,80.76,30h0ZM67.35,26.2H79.67c-0.08-3.88-2.49-6.7-5.77-6.73C70.2,19.41,67.51,22.12,67.35,26.2Zm15.94,3.87H84.5a4.84,4.84,0,0,0,2.84,4.17,7.43,7.43,0,0,0,6.45-.17,2.9,2.9,0,0,0,1.7-2.85,2.63,2.63,0,0,0-1.77-2.63c-1.33-.49-2.74-0.77-4.09-1.2a30,30,0,0,1-4.12-1.51c-2.18-1.06-2.32-5.21.15-6.52A8.69,8.69,0,0,1,94,19.24a4.37,4.37,0,0,1,2.21,4.46h-1s-0.09-.09-0.09-0.15c-0.13-3.3-2.9-4.33-5.88-4a7.52,7.52,0,0,0-2.55.77,2.55,2.55,0,0,0-1.48,2.55,2.55,2.55,0,0,0,1.7,2.4c1.3,0.48,2.68.78,4,1.16l3.25,0.85a3.84,3.84,0,0,1,2.64,3.46A4.09,4.09,0,0,1,94.55,35c-2.84,1.61-7.52,1.18-9.61-.85a5.67,5.67,0,0,1-1.65-4h0Zm28.78-6.37h-1.13a2.57,2.57,0,0,0-.08-0.42,3.7,3.7,0,0,0-3-3.56,7.43,7.43,0,0,0-4.77.23,2.9,2.9,0,0,0-2.1,2.77,2.67,2.67,0,0,0,2,2.69l5.17,1.33a14.39,14.39,0,0,1,1.65.5,4.25,4.25,0,0,1,.22,7.92,9.47,9.47,0,0,1-7.66.08,5.31,5.31,0,0,1-3.2-5.16h1.11A6.2,6.2,0,0,0,109.75,34a3,3,0,0,0,1.63-2.84,2.63,2.63,0,0,0-1.8-2.61c-1.33-.49-2.74-0.76-4.09-1.2a30.15,30.15,0,0,1-4.14-1.49c-2.13-1-2.3-5.16.13-6.47a8.57,8.57,0,0,1,8.44-.09,4.45,4.45,0,0,1,2.14,4.37h0ZM37.94,35.53a2,2,0,0,1-2.42-.92l-4.4-6.08-0.64-.85-5.11,6.94a1.87,1.87,0,0,1-2.3.9l6.58-8.83-6.12-8a2,2,0,0,1,2.42.85l4.56,6.16,4.59-6.14a1.83,1.83,0,0,1,2.28-.85L35,21.9,31.8,26.09a0.85,0.85,0,0,0-.07,1.2l0.07,0.07,6.13,8.18h0ZM65.87,18.64v1.2a6.17,6.17,0,0,0-6.57,6.37q0,4.2,0,8.41v1H58.09V18.72h1.2v3.45c1.47-2.52,3.74-3.45,6.6-3.52h0ZM7.33,26.59l0.54-2.65c1.47-5.23,7.47-7.41,11.6-4.17,2.42,1.9,3,4.59,2.9,7.62H8.75c-0.22,5.41,3.68,8.68,8.68,7a5.2,5.2,0,0,0,3.29-3.67,1,1,0,0,1,1.5-.75,6.91,6.91,0,0,1-3.3,5A8,8,0,0,1,9.6,33.84a8.39,8.39,0,0,1-2.09-4.92,3.37,3.37,0,0,0-.17-0.85q0-.76,0-1.48h0Zm1.44-.37H21.08c-0.08-3.92-2.55-6.71-5.85-6.73-3.68,0-6.31,2.67-6.47,6.72v0Z" transform="translate(-7.33 -18.25)"/></svg>