<?xml version="1.0" encoding="utf-8"?>
<!-- Generator: Adobe Illustrator 19.1.0, SVG Export Plug-In . SVG Version: 6.00 Build 0)  -->
<svg version="1.1" id="Layer_1" xmlns="http://www.w3.org/2000/svg" xmlns:xlink="http://www.w3.org/1999/xlink" x="0px" y="0px"
	 viewBox="0 0 200 200" style="enable-background:new 0 0 200 200;" xml:space="preserve">
<style type="text/css">
	.st0{fill:#343838;}
	.st1{display:none;fill:#FFFFFF;}
	.st2{font-family:'CarterOne';}
	.st3{font-size:90.7793px;}
	.st4{fill:#FFFFFF;}
</style>
<circle class="st0" cx="100" cy="100" r="100"/>
<text transform="matrix(1 0 0 1 11.1048 130.3682)" class="st1 st2 st3">YRA</text>
<g>
	<path class="st4" d="M51.7,43.8c0.4-0.2,1-0.6,1.9-1c0.9-0.4,2-0.9,3.2-1.4c1.2-0.5,2.5-1,3.9-1.6c1.4-0.6,2.8-1.2,4.3-1.7
		l10.9-4.3c0.8-0.4,1.6-0.6,2.2-0.6c0.5,0,1,0.1,1.6,0.4c0.6,0.3,1.3,0.8,2,1.5l21.7,42l0.6-1.4l9.3-17.2c1.2-2.1,2.4-4.2,3.5-6.3
		s2.2-3.9,3.1-5.5c0.9-1.6,1.7-2.9,2.3-3.9c0.6-1,1-1.5,1.1-1.5l32.1-8.1c0.8-0.2,1.4-0.3,1.9-0.3c1.4,0,2.2,0.7,2.2,2
		c-0.1,0.3-0.1,0.7-0.2,1.3c-0.1,0.5-0.3,1.1-0.6,1.7L131.2,89c-1.4,2.6-2.8,5.1-4.2,7.7c-1.4,2.6-2.8,5-4.1,7.3
		c-1.3,2.3-2.5,4.4-3.5,6.2c-1,1.9-1.9,3.4-2.5,4.6l-0.7,3.1L111,153c-0.2,1.1-0.3,1.9-0.5,2.6c-0.1,0.7-0.3,1.3-0.5,1.7
		c-0.2,0.4-0.5,0.8-0.8,1.1s-0.8,0.6-1.5,0.9l-26.6,14c-1,0.5-2,0.9-3.1,1.2c-1.1,0.3-2.1,0.5-3.1,0.5c-1.1,0-2-0.2-2.7-0.7
		c-0.7-0.5-1.1-1.2-1.1-2.3v-0.4c0.2-3.6,0.7-7.7,1.4-12.4c0.7-4.7,1.4-9.3,2.1-13.8l5.2-34.8c-1-2.1-2.3-4.9-3.9-8.4
		c-1.6-3.5-3.4-7.3-5.2-11.3c-1.9-4.1-3.8-8.2-5.9-12.6c-2-4.3-3.9-8.4-5.7-12.2s-3.4-7.2-4.8-10.2c-1.4-2.9-2.5-5.1-3.1-6.5
		c-0.3-0.9-0.5-1.9-0.5-2.9c0-0.6,0.1-1.1,0.2-1.6C50.9,44.4,51.2,44,51.7,43.8z"/>
</g>
</svg>
