<?xml version="1.0" encoding="iso-8859-1"?>
<!-- Generator: Adobe Illustrator 19.1.0, SVG Export Plug-In . SVG Version: 6.00 Build 0)  -->
<svg version="1.1" id="Layer_1" xmlns="http://www.w3.org/2000/svg" xmlns:xlink="http://www.w3.org/1999/xlink" x="0px" y="0px"
	 viewBox="0 0 800 600" style="enable-background:new 0 0 800 600;" xml:space="preserve">
<g>
	<path style="fill:#264CE2;" d="M566.943,539.809c-0.063,0.699-0.935,1.721-1.62,1.912
		c-52.884,14.743-105.786,29.427-158.697,44.071c-2.563,0.709-5.505,2.013-7.815,1.38c-54.695-14.992-109.328-30.209-163.956-45.443
		c-0.613-0.171-1.396-1.083-1.453-1.708c-2.464-26.9-4.85-53.807-7.255-80.713c-3.126-34.971-6.268-69.941-9.386-104.913
		c-2.892-32.434-5.755-64.871-8.643-97.305c-3.244-36.439-6.485-72.879-9.766-109.314c-0.575-6.384-1.337-12.751-2.013-19.125
		c0-1.133,0-2.267,0-3.4c0.452-0.02,0.904-0.057,1.356-0.057c134.886-0.003,269.772-0.003,404.659,0.013
		c0.568,0,1.137,0.242,1.705,0.37 M566.863,159.339c-0.575-0.042-0.905-0.088-1.235-0.088c-54.565-0.003-109.13-0.008-163.694,0.072
		c-0.533,0.001-1.527,1.134-1.53,1.743c-0.086,16.375-0.07,32.75-0.072,49.125c-0.109,0.039-0.217,0.077-0.326,0.116
		c-0.282-0.019-0.564-0.054-0.846-0.054c-41.876-0.003-83.752-0.003-125.628,0.003c-0.425,0-0.85,0.083-1.352,0.135
		c1.591,17.045,3.169,33.956,4.747,50.867c0.705,0.111,1.41,0.318,2.114,0.318c39.701,0.016,79.401,0.002,119.102,0.107
		c0.733,0.002,2.095,1.395,2.101,2.147c0.123,15.743,0.123,31.488-0.001,47.231c-0.006,0.742-1.386,2.116-2.129,2.118
		c-38.171,0.105-76.343,0.09-114.514,0.11c-0.742,0-1.484,0.262-2.227,0.402c1.471,16.349,2.927,32.699,4.464,49.042
		c0.063,0.666,0.883,1.81,1.352,1.811c37.611,0.066,75.222,0.04,112.833,0.02l-0.029,0.109c0.115,0.656,0.331,1.311,0.332,1.967
		c0.017,25.845,0.017,51.691,0,77.536c0,0.655-0.216,1.311-0.332,1.966l0.029,0.111c-18.285-4.951-36.579-9.871-54.831-14.939
		c-0.941-0.261-2.098-1.732-2.199-2.736c-1.228-12.281-2.255-24.581-3.444-36.866c-0.056-0.577-1.145-1.505-1.761-1.51
		c-10.254-0.094-20.51-0.067-30.765-0.067c-6.215,0-12.43,0-18.706,0c0.026,0.487,0.032,0.765,0.056,1.042
		c2.169,24.306,4.431,48.604,6.42,72.924c0.34,4.158,0.956,6.511,5.798,7.81c33.095,8.876,66.065,18.215,99.076,27.404
		c0.224,0.71,0.642,1.419,0.644,2.129c0.037,16.205,0.029,32.41,0.029,48.615c0,0.645,0,1.291,0,2.045
		c0.71-0.127,1.161-0.17,1.591-0.289c43.699-12.105,87.4-24.2,131.066-36.42c0.98-0.274,2.124-1.916,2.239-3.019"/>
	<path style="fill:#FEFEFE;" d="M196.34,128.65c0.676,6.375,1.438,12.741,2.013,19.125c3.281,36.436,6.522,72.875,9.766,109.314
		c2.887,32.434,5.751,64.871,8.643,97.305c3.118,34.972,6.26,69.942,9.386,104.913c2.405,26.906,4.791,53.813,7.255,80.713
		c0.057,0.625,0.839,1.537,1.453,1.708c54.628,15.234,109.261,30.451,163.956,45.443c2.31,0.633,5.252-0.671,7.815-1.38
		c52.912-14.644,105.813-29.328,158.697-44.071c0.684-0.191,1.556-1.213,1.62-1.912c4.709-52,9.339-104.008,13.99-156.014
		c4.938-55.221,9.892-110.44,14.838-165.66c2.764-30.853,5.526-61.706,8.288-92.559c-0.637-0.222-1.274-0.639-1.911-0.639
		c-135.269-0.028-270.539-0.028-405.808-0.028c0-37.173-0.005-74.347,0.056-111.52c0.001-0.454,0.849-1.303,1.304-1.304
		c31.507-0.062,63.013-0.056,94.52-0.056c0.007,25.818,0.014,51.636,0.022,77.454c0.519,0.135,1.038,0.388,1.557,0.389
		c19.569,0.02,39.138,0.02,58.706,0.002c0.529,0,1.058-0.225,1.587-0.345l-0.01,0.013c0.119-6.393,0.282-12.786,0.333-19.179
		c0.018-2.21-0.24-4.423-0.371-6.635c-11.881-0.032-23.763-0.064-35.644-0.096c0-7.856-0.043-15.713,0.082-23.567
		c0.01-0.628,1.175-1.769,1.812-1.775c10.511-0.112,21.024-0.072,31.537-0.095c0.753-0.002,1.505-0.231,2.257-0.355l-0.019,0.02
		c0.123-0.64,0.352-1.279,0.354-1.919c0.024-7.97,0.016-15.94,0.016-23.91c3.967,0,7.933,0,11.9,0c0,16.856,0,33.711,0,50.682
		c12.218,0,24.095,0,35.999,0c0,1.503,0,2.889,0,4.462c-11.986,0-23.898,0-35.968,0c0,7.885,0,15.582,0,23.279
		c0.508,0.152,1.015,0.438,1.523,0.438c19.651,0.023,39.301,0.034,58.952-0.052c0.574-0.003,1.639-1.059,1.642-1.629
		c0.09-16.252,0.076-32.505,0.053-48.758c-0.001-0.509-0.281-1.018-0.431-1.527c-11.863-0.04-23.726-0.081-35.589-0.121
		c-0.677-3.341,0.646-4.174,3.998-4.086c9.948,0.259,19.908,0.14,29.86-0.004c0.737-0.011,2.067-1.387,2.085-2.154
		c0.164-6.84,0.096-13.685,0.096-20.529c3.967,0,7.933,0,11.9,0c0,16.188-0.005,32.376,0.015,48.564
		c0.001,0.695,0.238,1.39,0.366,2.085c11.904,0,23.809,0,35.648,0c0,1.586,0,2.968,0,4.428c-11.97,0-23.835,0-35.701,0
		c-0.109,0.593-0.312,1.185-0.314,1.778c-0.022,6.68-0.069,13.361,0.07,20.038c0.014,0.675,1.203,1.901,1.852,1.905
		c19.473,0.103,38.947,0.101,58.42,0.004c0.625-0.003,1.782-1.176,1.786-1.809c0.1-16.133,0.083-32.267,0.06-48.4
		c-0.001-0.567-0.278-1.134-0.426-1.701c-10.687,0.021-21.38-0.156-32.058,0.171c-3.773,0.116-4.202-1.329-3.53-4.282
		c11.385,0,22.771,0.03,34.155-0.08c0.631-0.006,1.783-1.162,1.795-1.8c0.13-6.965,0.081-13.933,0.081-20.9
		c33.996,0,67.993,0,101.994,0c0.006,191.622,0.006,383.244-0.04,574.866c0,0.365-0.698,1.049-1.07,1.049
		c-135.362,0.046-270.724,0.046-406.085-0.02c-0.38,0-1.092-0.988-1.092-1.516C196.339,433.823,196.34,281.236,196.34,128.65z"/>
	<path d="M366.371,90.453c0-7.697,0-15.394,0-23.279c12.07,0,23.982,0,35.968,0c0-1.573,0-2.959,0-4.462
		c-11.904,0-23.781,0-35.999,0c0-16.971,0-33.826,0-50.682c20.627,0,41.253,0,61.88,0c0.014,7.121,0.051,14.243-0.019,21.364
		c-0.004,0.372-0.907,1.053-1.394,1.056c-10.344,0.062-20.694,0.254-31.029-0.058c-4.011-0.121-3.872,1.692-3.257,4.412
		c11.863,0.04,23.726,0.081,35.589,0.121c0.051,10.122,0.116,20.244,0.149,30.366c0.023,7.112,0.005,14.225,0.005,21.421
		c-20.489,0-40.794,0.001-61.099-0.011C366.9,90.702,366.635,90.54,366.371,90.453z"/>
	<path d="M440.787,67.107c11.866,0,23.731,0,35.701,0c0-1.46,0-2.842,0-4.428c-11.839,0-23.743,0-35.648,0
		c-0.014-16.883-0.027-33.766-0.041-50.649c20.513,0,41.027,0,61.54,0c0,7.447,0,14.894,0,22.466
		c-11.26,0-22.459-0.005-33.659,0.013c-0.678,0.001-1.355,0.196-2.032,0.301c-0.672,2.952-0.244,4.397,3.53,4.282
		c10.678-0.327,21.371-0.15,32.058-0.171c0.068,0.214,0.195,0.429,0.195,0.643c0.012,16.709,0.021,33.418-0.036,50.127
		c-0.001,0.344-0.769,0.984-1.181,0.985c-19.767,0.049-39.535,0.049-59.303,0c-0.414-0.001-1.186-0.641-1.188-0.985
		C440.694,82.163,440.749,74.635,440.787,67.107z"/>
	<path d="M292.242,89.484c-0.007-25.818-0.014-51.636-0.022-77.454c20.627,0,41.253,0,61.88,0c-0.01,8.61-0.02,17.219-0.03,25.829
		c0,0,0.019-0.02,0.019-0.02c-10.252,0.013-20.513,0.294-30.751-0.085c-4.389-0.162-5.671,0.869-5.335,5.319
		c0.515,6.824,0.302,13.703,0.398,20.559c11.881,0.032,23.763,0.064,35.644,0.096c0.013,8.605,0.025,17.209,0.038,25.814
		c0,0,0.01-0.013,0.01-0.013C333.476,89.515,312.859,89.5,292.242,89.484z"/>
	<path style="fill:#FEFEFE;" d="M196.34,124.91c135.269,0,270.539-0.001,405.808,0.028c0.637,0,1.274,0.417,1.911,0.639
		c-0.568-0.129-1.137-0.37-1.705-0.37c-134.886-0.016-269.772-0.016-404.659-0.013c-0.452,0-0.904,0.037-1.356,0.057
		C196.34,125.137,196.34,125.023,196.34,124.91z"/>
	<path style="fill:#FEFEFE;" d="M392.521,38.804c-0.615-2.72-0.754-4.533,3.257-4.412c10.335,0.312,20.685,0.119,31.029,0.058
		c0.487-0.003,1.39-0.684,1.394-1.056c0.07-7.121,0.033-14.242,0.019-21.364c0.113,0,0.227,0,0.34,0
		c0,6.844,0.069,13.689-0.096,20.529c-0.018,0.767-1.348,2.143-2.085,2.154c-9.953,0.145-19.912,0.263-29.86,0.004
		C393.167,34.63,391.844,35.463,392.521,38.804z"/>
	<path style="fill:#FEFEFE;" d="M466.649,34.81c0.677-0.105,1.355-0.299,2.032-0.301c11.2-0.019,22.399-0.013,33.659-0.013
		c0-7.572,0-15.019,0-22.466c0.113,0,0.227,0,0.34,0c0,6.967,0.049,13.935-0.081,20.9c-0.012,0.638-1.164,1.794-1.795,1.8
		C489.42,34.84,478.034,34.81,466.649,34.81z"/>
	<path style="fill:#FEFEFE;" d="M440.8,12.03c0.014,16.883,0.027,33.766,0.041,50.649c-0.127-0.695-0.365-1.39-0.366-2.085
		c-0.021-16.188-0.016-32.376-0.015-48.564C440.573,12.03,440.687,12.03,440.8,12.03z"/>
	<path style="fill:#FEFEFE;" d="M354.07,37.859c0.01-8.61,0.02-17.219,0.03-25.829c0.113,0,0.227,0,0.34,0
		c0,7.97,0.008,15.94-0.016,23.91C354.422,36.58,354.193,37.219,354.07,37.859z"/>
	<path style="fill:#2965F0;" d="M400.332,210.191c0.001-16.375-0.014-32.75,0.072-49.125c0.003-0.609,0.997-1.742,1.53-1.743
		c54.565-0.08,109.13-0.075,163.694-0.072c0.33,0,0.66,0.045,1.235,0.088c-1.083,11.79-2.174,23.483-3.227,35.18
		c-0.849,9.424-1.635,18.853-2.479,28.277c-1.211,13.515-2.467,27.027-3.671,40.543c-0.954,10.715-1.835,21.437-2.792,32.152
		c-1.197,13.403-2.451,26.801-3.66,40.204c-0.946,10.489-1.856,20.981-2.794,31.471c-1.223,13.684-2.473,27.366-3.682,41.052
		c-1.061,12.006-2.054,24.018-3.126,36.023c-1.192,13.347-2.454,26.688-3.656,40.034c-0.844,9.368-1.572,18.747-2.544,28.101
		c-0.115,1.103-1.259,2.745-2.239,3.019c-43.666,12.22-87.367,24.316-131.066,36.42c-0.43,0.119-0.881,0.162-1.591,0.289
		c0-0.754,0-1.399,0-2.045c0-16.205,0.008-32.41-0.029-48.615c-0.002-0.71-0.42-1.42-0.644-2.13
		c0.116-0.036,0.231-0.072,0.347-0.107c0.169,0.001,0.349,0.041,0.505-0.002c34.323-9.509,68.645-19.019,102.952-28.588
		c0.529-0.148,1.173-0.995,1.228-1.567c1.003-10.538,1.922-21.085,2.864-31.629c3.022-33.831,6.043-67.662,9.072-101.493
		c2.555-28.53,5.126-57.059,7.679-85.589c1.19-13.295,2.354-26.593,3.547-40.089c-0.84,0-1.56,0-2.28,0
		C483.829,210.23,442.08,210.211,400.332,210.191z"/>
	<path style="fill:#FEFEFE;" d="M507.559,437.421c-0.942,10.544-1.861,21.091-2.864,31.629c-0.054,0.572-0.698,1.419-1.228,1.567
		c-34.306,9.569-68.629,19.079-102.952,28.588c-0.157,0.043-0.336,0.003-0.505,0.002c0.003-17.651,0.005-35.302,0.008-52.954
		c0,0-0.029-0.111-0.029-0.111c18.396-4.943,36.797-9.866,55.167-14.902c0.799-0.219,1.798-1.436,1.882-2.271
		c1.095-10.928,2.049-21.869,3.024-32.809c0.933-10.462,1.849-20.926,2.781-31.488c-21.065,0-41.959,0-62.853,0
		c0,0,0.029-0.109,0.029-0.109c-0.003-16.97-0.006-33.94-0.009-50.911c21.867-0.023,43.734-0.034,65.6-0.136
		c0.599-0.003,1.655-0.94,1.718-1.525c0.715-6.641,1.289-13.298,1.88-19.952c0.906-10.188,1.796-20.378,2.716-30.834
		c-24.131,0-48.023,0-71.915,0c-0.002-16.966-0.003-33.933-0.005-50.9c0.109-0.039,0.217-0.077,0.326-0.116
		c41.749,0.02,83.497,0.039,125.246,0.059c0.72,0,1.439,0,2.28,0"/>
	<path style="fill:#EAEAEA;" d="M400.018,446.253c-0.003,17.651-0.005,35.302-0.008,52.954c-0.116,0.036-0.231,0.072-0.347,0.107
		c-33.01-9.19-65.981-18.529-99.076-27.404c-4.842-1.299-5.458-3.651-5.798-7.81c-1.989-24.32-4.251-48.618-6.42-72.924
		c-0.025-0.277-0.031-0.555-0.056-1.042c6.276,0,12.491,0,18.706,0c10.255,0,20.51-0.027,30.765,0.067
		c0.615,0.006,1.705,0.933,1.761,1.51c1.189,12.285,2.216,24.585,3.444,36.866c0.1,1.003,1.257,2.475,2.199,2.736
		C363.44,436.382,381.733,441.303,400.018,446.253z"/>
	<path style="fill:#EAEAEA;" d="M400.006,210.307c0.002,16.966,0.003,33.933,0.005,50.899c-41.028,0.017-82.056,0.034-123.084,0.051
		c-1.578-16.911-3.156-33.822-4.747-50.867c0.502-0.052,0.927-0.135,1.352-0.135c41.876-0.006,83.752-0.005,125.628-0.003
		C399.441,210.253,399.724,210.288,400.006,210.307z"/>
	<path style="fill:#EAEAEA;" d="M400.01,313.654c0.003,16.97,0.006,33.94,0.009,50.911c-37.611,0.019-75.222,0.045-112.833-0.02
		c-0.469-0.001-1.289-1.145-1.352-1.811c-1.537-16.343-2.993-32.693-4.464-49.042C320.918,313.678,360.464,313.666,400.01,313.654z"
		/>
	<path style="fill:#2965F0;" d="M399.99,364.673c20.894,0,41.788,0,62.853,0c-0.932,10.562-1.849,21.026-2.781,31.488
		c-0.975,10.939-1.929,21.881-3.024,32.809c-0.084,0.835-1.083,2.052-1.882,2.271c-18.37,5.036-36.772,9.958-55.167,14.902
		c0.116-0.655,0.332-1.311,0.332-1.966c0.017-25.845,0.017-51.691,0-77.536C400.321,365.984,400.105,365.329,399.99,364.673z"/>
	<path style="fill:#2965F0;" d="M400.01,313.654c-39.546,0.012-79.093,0.025-118.639,0.037c0.742-0.14,1.484-0.402,2.227-0.402
		c38.171-0.02,76.343-0.005,114.514-0.11c0.743-0.002,2.123-1.376,2.129-2.118c0.125-15.743,0.125-31.488,0.001-47.231
		c-0.006-0.752-1.367-2.145-2.101-2.147c-39.7-0.105-79.401-0.092-119.102-0.107c-0.705,0-1.41-0.207-2.114-0.318
		c41.028-0.017,82.056-0.034,123.084-0.05c23.892,0,47.784,0,71.915,0c-0.92,10.456-1.81,20.645-2.716,30.834
		c-0.591,6.654-1.165,13.311-1.88,19.952c-0.063,0.585-1.12,1.522-1.718,1.525C443.744,313.62,421.877,313.63,400.01,313.654z"/>
	<path style="fill:#FEFEFE;" d="M440.787,67.107c-0.039,7.528-0.093,15.056-0.063,22.584c0.001,0.344,0.773,0.984,1.188,0.985
		c19.767,0.049,39.535,0.049,59.303,0c0.412-0.001,1.18-0.641,1.181-0.985c0.056-16.709,0.047-33.418,0.036-50.127
		c0-0.214-0.127-0.429-0.195-0.643c0.148,0.567,0.425,1.134,0.426,1.701c0.023,16.134,0.04,32.267-0.06,48.4
		c-0.004,0.633-1.162,1.806-1.786,1.809c-19.473,0.097-38.947,0.099-58.42-0.004c-0.649-0.003-1.838-1.229-1.852-1.905
		c-0.14-6.677-0.093-13.358-0.07-20.038C440.475,68.292,440.678,67.7,440.787,67.107z"/>
	<path style="fill:#FEFEFE;" d="M366.371,90.453c0.264,0.086,0.529,0.248,0.793,0.248c20.305,0.012,40.61,0.011,61.099,0.011
		c0-7.196,0.019-14.309-0.005-21.421c-0.033-10.122-0.098-20.244-0.149-30.366c0.15,0.509,0.431,1.018,0.431,1.527
		c0.023,16.253,0.036,32.506-0.053,48.758c-0.003,0.57-1.068,1.627-1.642,1.629c-19.65,0.086-39.301,0.075-58.952,0.052
		C367.386,90.891,366.879,90.606,366.371,90.453z"/>
	<path style="fill:#FEFEFE;" d="M292.242,89.484c20.617,0.015,41.234,0.031,61.851,0.046c-0.529,0.12-1.058,0.344-1.587,0.345
		c-19.569,0.018-39.138,0.018-58.706-0.002C293.28,89.873,292.761,89.62,292.242,89.484z"/>
	<path style="fill:#FEFEFE;" d="M318.401,63.632c-0.096-6.856,0.117-13.735-0.398-20.559c-0.336-4.45,0.947-5.481,5.335-5.319
		c10.237,0.379,20.499,0.098,30.751,0.085c-0.752,0.124-1.505,0.354-2.257,0.355c-10.513,0.024-21.026-0.016-31.537,0.095
		c-0.638,0.007-1.802,1.148-1.812,1.775C318.357,47.919,318.401,55.776,318.401,63.632z"/>
	<path style="fill:#FEFEFE;" d="M354.083,89.543c-0.013-8.605-0.025-17.209-0.038-25.814c0.132,2.212,0.389,4.424,0.371,6.635
		C354.364,76.757,354.202,83.15,354.083,89.543z"/>
</g>
</svg>
