<?xml version="1.0" encoding="iso-8859-1"?>
<!-- Generator: Adobe Illustrator 19.1.0, SVG Export Plug-In . SVG Version: 6.00 Build 0)  -->
<svg version="1.1" id="logo-mongodb_xA0_Image_1_" xmlns="http://www.w3.org/2000/svg" xmlns:xlink="http://www.w3.org/1999/xlink"
	 x="0px" y="0px" viewBox="0 0 580 358" style="enable-background:new 0 0 580 358;" xml:space="preserve">
<g>
	<path style="fill:#FEFEFE;" d="M1,158C1,105.667,1,53.333,1,1c193.333,0,386.667,0,580,0c0,70,0,140,0,210
		c-2.473-8.216-7.373-14.168-15.732-16.923c-0.2-0.066-0.258-0.564-0.354-0.79c0-0.24-0.067-0.455,0.012-0.564
		c0.288-0.397,0.555-0.871,0.952-1.117c6.899-4.274,9.891-10.449,7.777-18.284c-2.03-7.523-8.094-10.498-15.329-11.521
		c-12.422-1.755-24.912-0.105-37.355-0.759c-2.447-0.129-3.009,1.607-3.596,3.395c1.178,1.064,2.549,1.574,4.104,1.519
		c5.011-0.179,6.606,2.438,6.562,7.168c-0.152,16.315-0.155,32.632-0.028,48.947c0.039,5.023-1.42,8.489-6.937,8.832
		c-2.673,0.166-3.717,1.381-3.527,5.023c9.949,0,19.767,0.422,29.535-0.099c14.556-0.777,27.828-4.229,33.075-20.395
		c0.069-0.212,0.551-0.29,0.841-0.431c0,48,0,96,0,144c-193.333,0-386.667,0-580,0c0-55.667,0-111.333,0-167
		c1.437,0.377,1.446,1.792,1.712,2.773c4.973,18.287,15.548,32.722,30.267,44.34c0.612,0.669,1.224,1.337,1.835,2.006
		c0.598,3.054,1.195,6.109,1.793,9.163c-1.139,3.176,0.212,5.678,2.074,8.743c1.86-3.381,1.221-6.295,1.014-9.163
		c0.458-3.868,0.916-7.736,1.374-11.604c2.112,0.486,3.471-0.911,4.842-2.066c15.918-13.402,24.838-30.746,26.913-51.188
		c2.33-22.957-4.965-43.481-18.144-62.148c-5.693-8.063-14.254-13.853-18.136-23.819c-1.138,3.307-2.877,5.465-5.082,7.334
		c-13.867,11.755-22.71,26.626-27.596,44.056C3.152,152.969,3.758,156.18,1,158z M435.068,235.016
		c4.51,0.237,8.791,0.539,13.077,0.673c11.614,0.363,23.277,1.036,34.578-2.57c18.228-5.818,27.496-19.874,26.298-40.234
		c-0.872-14.821-10.994-28.872-29.603-31.198c-14.236-1.779-28.559-0.02-42.832-0.655c-2.327-0.103-2.994,1.588-3.393,3.486
		c1.124,0.869,2.343,1.234,3.678,1.464c6.657,1.148,7.24,1.776,7.243,8.232c0.008,16.637-0.133,33.274,0.002,49.91
		c0.032,3.894-1.593,6.022-5.154,6.655C436.773,231.167,435.087,231.648,435.068,235.016z M161.277,234.942
		c7.017,0,13.678-0.004,20.338,0.003c1.516,0.002,3.151,0.209,3.298-1.996c0.135-2.022-1.419-1.871-2.708-2.05
		c-4.319-0.6-5.576-3.109-5.376-7.338c0.329-6.978,0.376-13.997,0.037-20.974c-0.722-14.868-12.006-21.011-25.095-13.966
		c-2.708,1.457-4.927,3.854-8.17,4.543c-9.527-13.605-19.555-5.861-29.172-0.369c-1.708-2.403,0.42-4.766-1.275-6.78
		c-5.755,1.482-11.541,2.972-17.5,4.507c0.618,1.669,1.521,2.125,2.465,2.333c5.172,1.14,6.745,4.427,6.456,9.492
		c-0.407,7.139-0.481,14.31-0.356,21.461c0.072,4.119-1.028,6.829-5.523,7.181c-1.518,0.119-2.645,0.703-2.483,2.415
		c0.15,1.579,1.441,1.571,2.637,1.57c6.494-0.003,12.988-0.003,19.482-0.012c1.164-0.002,2.409,0.118,2.602-1.555
		c0.201-1.74-0.662-2.366-2.292-2.446c-4.192-0.206-5.008-2.86-4.949-6.505c0.127-7.824,0-15.652,0.009-23.478
		c0.002-1.638-0.265-3.434,1.319-4.587c4.336-3.159,9.084-5.204,14.426-3.223c4.798,1.78,6.515,5.982,6.616,10.763
		c0.147,6.99-0.078,13.988,0.072,20.978c0.078,3.655-1.368,5.711-5.015,6.025c-1.716,0.148-3.119,0.696-2.788,2.622
		c0.299,1.742,1.968,1.422,3.273,1.421c5.995-0.002,11.989-0.004,17.984-0.027c1.462-0.006,3.208,0.322,3.331-1.934
		c0.105-1.92-1.392-1.923-2.717-2.134c-3.824-0.61-5.095-2.935-5.036-6.697c0.129-8.155-0.052-16.315-0.108-24.473
		c-0.007-0.986-0.239-2.057,0.646-2.795c3.912-3.267,8.44-4.829,13.443-3.766c4.457,0.948,7.147,3.977,7.934,8.57
		c1.333,7.776,0.712,15.603,0.542,23.408c-0.066,3.043-1.431,5.43-4.917,5.843C160.063,231.283,160.649,232.941,161.277,234.942z
		 M356.997,195.236c8.285-0.45,9.534-1.661,8.555-7.936c-5.073,2.805-10.243,2.296-15.372,0.296
		c-8.154-3.18-15.979-2.361-23.458,1.902c-5.77,3.288-8.831,8.236-8.724,15.076c0.106,6.749,2.794,11.789,8.922,14.874
		c0.804,0.405,2.066,0.439,2.054,1.921c-1.726,3.291-7.182,3.05-7.81,6.872c-0.729,4.436,4.357,5.528,6.846,8.288
		c-2.362,1.814-4.481,3.407-6.564,5.046c-7.315,5.754-7.212,13.324,0.242,18.988c13.007,9.884,37.503,2.34,42.699-13.149
		c3.043-9.07-1.014-16.028-10.413-17.464c-5.395-0.825-10.847-1.313-16.286-1.801c-2.623-0.235-5.488-0.52-5.53-3.675
		c-0.043-3.218,2.841-3.33,5.447-3.679c13.883-1.857,19.901-9.15,19.394-23.22C356.977,196.926,356.997,196.275,356.997,195.236z
		 M251.947,191.131c-0.024,1.871,1.601,1.982,2.753,2.281c4.888,1.268,6.299,4.352,6.139,9.258
		c-0.244,7.475-0.092,14.957-0.608,22.44c-0.216,3.134-1.068,5.202-4.311,5.506c-3.038,0.285-3.566,1.773-2.414,4.667
		c7.331,0,14.792-0.024,22.252,0.011c3.404,0.016,2.535-2.086,2.351-3.897c-2.925-1.161-7.092-0.084-7.154-4.842
		c-0.112-8.65-0.15-17.302-0.23-25.952c-0.024-2.597,1.197-4.258,3.467-5.531c9.523-5.339,18.46-0.451,18.753,10.454
		c0.17,6.32-0.093,12.652,0.122,18.969c0.121,3.548-0.94,5.897-4.651,6.3c-3.657,0.397-2.519,2.38-1.987,4.635
		c8.283-0.625,16.229-0.386,24.05-0.159c0.812-2.518,1.111-4.267-1.991-4.589c-4.599-0.477-5.76-3.351-5.566-7.684
		c0.297-6.643,0.239-13.316,0.007-19.965c-0.55-15.784-12.615-22.281-26.082-14.135c-1.937,1.172-3.767,2.52-5.646,3.787
		c-1.827-2.174,0.882-4.768-1.033-6.684C265.201,186.6,253.953,189.766,251.947,191.131z M422,209.718
		c-0.005-14.347-9.125-23.93-22.889-24.051c-15.617-0.137-27.099,10.543-27.003,25.118c0.102,15.395,9.528,25.27,24.105,25.252
		C411.343,236.017,422.006,225.135,422,209.718z M193.931,210.686c0.026,15.608,9.168,25.359,23.766,25.349
		c14.96-0.011,26.024-11.117,26.116-26.214c0.086-14.112-9.769-24.235-23.513-24.153C204.64,185.76,193.907,195.944,193.931,210.686
		z"/>
	<path style="fill:#46A038;" d="M32.98,239.113c-14.72-11.618-25.294-26.053-30.267-44.34C2.446,193.792,2.437,192.377,1,192
		c0-11.333,0-22.667,0-34c2.758-1.82,2.152-5.031,2.865-7.573c4.886-17.429,13.73-32.3,27.596-44.056
		c2.205-1.869,3.944-4.027,5.082-7.334c3.882,9.966,12.444,15.755,18.136,23.819c13.18,18.667,20.475,39.191,18.144,62.148
		c-2.075,20.442-10.994,37.786-26.913,51.188c-1.371,1.154-2.73,2.551-4.842,2.065c0.04-1.409-0.854-2.046-2.025-2.454
		c0.178-3.881-0.988-7.472-1.915-11.751c-1.407,2.058-0.693,3.672-1.156,5.013C34.828,232.375,36.406,236.499,32.98,239.113z"/>
	<path style="fill:#977D62;" d="M581,215c-0.289,0.141-0.772,0.219-0.841,0.431c-5.247,16.167-18.519,19.619-33.075,20.395
		c-9.767,0.521-19.585,0.099-29.535,0.099c-0.19-3.642,0.854-4.857,3.527-5.023c5.517-0.343,6.976-3.81,6.937-8.832
		c-0.127-16.315-0.124-32.633,0.028-48.947c0.044-4.73-1.551-7.347-6.562-7.168c-1.555,0.056-2.925-0.455-4.104-1.519
		c0.587-1.789,1.149-3.524,3.596-3.395c12.443,0.655,24.933-0.996,37.355,0.759c7.235,1.022,13.299,3.998,15.329,11.521
		c2.115,7.835-0.878,14.01-7.777,18.284c-0.398,0.246-0.665,0.72-0.952,1.117c-0.079,0.109-0.012,0.324-0.012,0.564
		c0.095,0.227,0.153,0.724,0.354,0.79c8.359,2.755,13.259,8.707,15.732,16.923C581,212.333,581,213.667,581,215z M539.03,211.563
		c0,1.331-0.009,2.661,0.001,3.992c0.109,13.665,2.119,15.495,15.904,14.485c5.771-0.423,10.393-4.093,12.076-9.589
		c3.717-12.137-3.638-21.721-17.188-22.397c-10.8-0.539-10.8-0.539-10.801,10.017C539.022,209.235,539.022,210.399,539.03,211.563z
		 M539.114,179.81c-0.19,14.429,0.216,14.81,13.768,13.002c0.165-0.022,0.331-0.035,0.494-0.063
		c4.703-0.822,7.693-3.383,8.965-8.135c2.633-9.843-3.085-17.193-14.512-18.412c-7.982-0.851-8.679-0.243-8.714,7.628
		C539.107,175.823,539.114,177.817,539.114,179.81z"/>
	<path style="fill:#977D62;" d="M435.068,235.016c0.019-3.368,1.705-3.849,3.895-4.238c3.56-0.632,5.185-2.761,5.154-6.655
		c-0.135-16.635,0.006-33.273-0.002-49.91c-0.003-6.455-0.586-7.084-7.243-8.232c-1.336-0.23-2.554-0.595-3.678-1.464
		c0.399-1.898,1.065-3.589,3.393-3.486c14.273,0.635,28.597-1.125,42.832,0.655c18.609,2.326,28.731,16.377,29.603,31.198
		c1.198,20.361-8.07,34.416-26.298,40.234c-11.301,3.607-22.964,2.934-34.578,2.57C443.858,235.555,439.578,235.253,435.068,235.016
		z M455.974,195.631c0,8.489,0.046,16.978-0.021,25.466c-0.03,3.765,1.391,6.782,5.035,7.712c9.514,2.429,19.024,2.878,26.609-4.753
		c11.181-11.248,11.507-25.037,7.113-38.996c-4.322-13.729-21.959-22.513-35.786-18.891c-2.781,0.729-2.976,2.707-2.97,4.994
		C455.978,179.319,455.964,187.475,455.974,195.631z"/>
	<path style="fill:#553E31;" d="M161.277,234.942c-0.628-2-1.214-3.659,1.429-3.972c3.486-0.413,4.85-2.8,4.917-5.843
		c0.17-7.805,0.791-15.632-0.542-23.408c-0.787-4.593-3.477-7.622-7.934-8.57c-5.003-1.064-9.53,0.499-13.443,3.766
		c-0.885,0.739-0.653,1.81-0.646,2.795c0.056,8.158,0.237,16.318,0.108,24.473c-0.059,3.762,1.212,6.087,5.036,6.697
		c1.325,0.211,2.821,0.214,2.717,2.134c-0.123,2.255-1.869,1.928-3.331,1.934c-5.995,0.023-11.989,0.025-17.984,0.027
		c-1.304,0.001-2.973,0.321-3.273-1.421c-0.331-1.925,1.072-2.474,2.788-2.622c3.646-0.314,5.093-2.371,5.015-6.025
		c-0.15-6.99,0.075-13.988-0.072-20.978c-0.1-4.782-1.818-8.984-6.616-10.763c-5.342-1.981-10.09,0.064-14.426,3.223
		c-1.584,1.154-1.317,2.95-1.319,4.587c-0.009,7.826,0.119,15.654-0.009,23.478c-0.059,3.644,0.757,6.299,4.949,6.505
		c1.63,0.08,2.493,0.706,2.292,2.446c-0.193,1.674-1.438,1.554-2.602,1.555c-6.494,0.009-12.988,0.009-19.482,0.012
		c-1.196,0.001-2.487,0.008-2.637-1.57c-0.162-1.712,0.965-2.296,2.483-2.415c4.495-0.352,5.595-3.063,5.523-7.181
		c-0.126-7.151-0.051-14.322,0.356-21.461c0.289-5.065-1.285-8.352-6.456-9.492c-0.943-0.208-1.847-0.665-2.465-2.333
		c5.958-1.534,11.744-3.025,17.5-4.507c1.694,2.014-0.433,4.377,1.275,6.78c9.617-5.491,19.645-13.236,29.172,0.369
		c3.242-0.688,5.462-3.086,8.17-4.543c13.089-7.045,24.373-0.902,25.095,13.966c0.339,6.977,0.292,13.996-0.037,20.974
		c-0.2,4.229,1.057,6.738,5.376,7.338c1.289,0.179,2.843,0.028,2.708,2.05c-0.147,2.205-1.782,1.998-3.298,1.996
		C174.955,234.938,168.294,234.942,161.277,234.942z"/>
	<path style="fill:#553E31;" d="M356.997,195.236c0,1.039-0.02,1.69,0.003,2.34c0.507,14.07-5.511,21.363-19.394,23.22
		c-2.606,0.349-5.49,0.461-5.447,3.679c0.042,3.155,2.907,3.44,5.53,3.675c5.44,0.488,10.891,0.976,16.286,1.801
		c9.399,1.437,13.456,8.394,10.413,17.464c-5.196,15.489-29.692,23.033-42.699,13.149c-7.455-5.664-7.557-13.235-0.242-18.988
		c2.083-1.639,4.202-3.233,6.564-5.046c-2.49-2.76-7.575-3.853-6.846-8.288c0.628-3.822,6.084-3.581,7.81-6.872
		c0.012-1.482-1.25-1.517-2.054-1.921c-6.129-3.085-8.817-8.125-8.922-14.874c-0.107-6.84,2.954-11.788,8.724-15.076
		c7.479-4.262,15.304-5.081,23.458-1.902c5.128,2,10.298,2.509,15.372-0.296C366.531,193.575,365.282,194.786,356.997,195.236z
		 M341.148,258.99c3.932,0.279,7.65-0.476,10.899-2.715c3.532-2.434,5.458-5.855,4.893-10.229c-0.567-4.393-3.651-6.492-7.647-7.475
		c-4.539-1.117-9.168-1.655-13.828-1.378c-4.643,0.276-9.733,4.656-10.449,8.672c-0.805,4.513,1.635,8.699,6.509,11.182
		C334.555,258.59,337.772,259.206,341.148,258.99z M348.062,204.075c0.012-1.996-0.12-3.938-0.773-5.882
		c-1.956-5.821-5.848-8.693-11.453-8.241c-4.821,0.389-7.944,3.902-8.506,10.003c-0.178,1.931,0.215,3.96,0.606,5.891
		c1.473,7.271,5.977,10.982,12.307,10.283C345.212,215.581,348.055,211.201,348.062,204.075z"/>
	<path style="fill:#553E31;" d="M251.947,191.131c2.006-1.365,13.254-4.531,18.22-5.131c1.915,1.916-0.794,4.51,1.033,6.684
		c1.88-1.267,3.71-2.616,5.646-3.787c13.467-8.146,25.532-1.649,26.082,14.135c0.232,6.649,0.29,13.323-0.007,19.965
		c-0.194,4.333,0.967,7.207,5.566,7.684c3.102,0.322,2.803,2.071,1.991,4.589c-7.822-0.227-15.768-0.466-24.05,0.159
		c-0.532-2.255-1.67-4.238,1.987-4.635c3.711-0.403,4.771-2.752,4.651-6.3c-0.215-6.317,0.048-12.649-0.122-18.969
		c-0.293-10.905-9.23-15.793-18.753-10.454c-2.271,1.273-3.491,2.934-3.467,5.531c0.081,8.651,0.118,17.302,0.23,25.952
		c0.062,4.759,4.229,3.681,7.154,4.842c0.184,1.811,1.053,3.912-2.351,3.897c-7.46-0.034-14.921-0.011-22.252-0.011
		c-1.152-2.893-0.624-4.382,2.414-4.667c3.242-0.304,4.094-2.371,4.311-5.506c0.517-7.483,0.364-14.965,0.608-22.44
		c0.16-4.906-1.252-7.99-6.139-9.258C253.548,193.113,251.923,193.002,251.947,191.131z"/>
	<path style="fill:#553E31;" d="M422,209.718c0.006,15.417-10.657,26.299-25.787,26.318c-14.577,0.018-24.003-9.856-24.105-25.252
		c-0.097-14.574,11.385-25.255,27.003-25.118C412.875,185.788,421.994,195.371,422,209.718z M382.684,207.147
		c0.133,9.8,2.689,16.44,7.624,20.626c6.353,5.388,15.235,4.36,18.957-2.195c4.593-8.088,2.73-23.85-3.747-30.491
		c-3.991-4.092-8.878-6.017-14.48-4.057c-5.493,1.922-7.674,6.477-8.147,11.99C382.749,204.672,382.723,206.334,382.684,207.147z"/>
	<path style="fill:#553E31;" d="M193.931,210.686c-0.025-14.742,10.709-24.927,26.369-25.019
		c13.744-0.081,23.599,10.042,23.513,24.153c-0.092,15.098-11.156,26.203-26.116,26.214
		C203.1,236.046,193.958,226.295,193.931,210.686z M233.027,215.075c0.298-7.996-1.035-14.232-5.456-19.434
		c-6.012-7.075-15.851-7.148-20.56-0.274c-5.955,8.692-2.724,27.019,5.85,33.177c7.919,5.688,16.739,2.505,19.473-6.908
		C233.097,219.009,232.945,216.386,233.027,215.075z"/>
	<path style="fill:#A0AB82;" d="M32.98,239.113c3.427-2.614,1.848-6.738,2.993-10.048c0.464-1.341-0.251-2.955,1.156-5.013
		c0.927,4.279,2.092,7.87,1.914,11.751c-0.533,2.469-1.096,4.915-4.229,5.316C34.203,240.45,33.591,239.782,32.98,239.113z"/>
	<path style="fill:#BDBCA1;" d="M34.815,241.119c3.132-0.401,3.695-2.847,4.229-5.316c1.171,0.408,2.066,1.045,2.025,2.454
		c-0.457,3.869-0.915,7.737-1.371,11.606c-1.029,0.141-2.06,0.28-3.09,0.42C36.01,247.228,35.412,244.173,34.815,241.119z"/>
	<path style="fill:#D6D4BF;" d="M36.607,250.282c1.031-0.14,2.062-0.279,3.09-0.42c0.204,2.867,0.844,5.782-1.016,9.162
		C36.819,255.961,35.469,253.458,36.607,250.282z"/>
	<path style="fill:#FEFEFE;" d="M539.026,211.563c-0.004-1.164-0.004-2.329-0.004-3.493c0.001-10.555,0.001-10.555,10.801-10.017
		c13.55,0.676,20.905,10.26,17.188,22.397c-1.683,5.496-6.305,9.166-12.076,9.589c-13.785,1.01-15.795-0.82-15.904-14.485
		C539.02,214.224,539.03,212.894,539.026,211.563z"/>
	<path style="fill:#FEFEFE;" d="M539.114,179.81c0-1.994-0.008-3.987,0.001-5.981c0.035-7.871,0.731-8.479,8.714-7.628
		c11.427,1.218,17.145,8.569,14.512,18.412c-1.271,4.753-4.262,7.313-8.965,8.135c-0.163,0.029-0.33,0.042-0.494,0.063
		C539.33,194.62,538.925,194.239,539.114,179.81z"/>
	<path style="fill:#FEFEFE;" d="M455.969,195.631c-0.005-8.156,0.009-16.312-0.015-24.467c-0.007-2.288,0.189-4.266,2.97-4.994
		c13.827-3.622,31.465,5.162,35.786,18.891c4.394,13.959,4.068,27.748-7.113,38.996c-7.585,7.631-17.095,7.182-26.609,4.753
		c-3.644-0.93-5.065-3.948-5.035-7.712C456.021,212.608,455.974,204.119,455.969,195.631z"/>
	<path style="fill:#FEFEFE;" d="M341.154,258.992c-3.382,0.213-6.599-0.402-9.629-1.946c-4.874-2.482-7.314-6.668-6.509-11.182
		c0.716-4.016,5.806-8.396,10.449-8.672c4.66-0.277,9.289,0.261,13.828,1.378c3.996,0.983,7.08,3.081,7.647,7.475
		c0.564,4.374-1.361,7.795-4.893,10.229C348.798,258.514,345.08,259.269,341.154,258.992z"/>
	<path style="fill:#FEFEFE;" d="M348.066,204.075c-0.011,7.126-2.854,11.507-7.821,12.056c-6.331,0.7-10.834-3.012-12.307-10.283
		c-0.391-1.931-0.784-3.96-0.606-5.891c0.562-6.102,3.685-9.615,8.506-10.003c5.605-0.452,9.497,2.42,11.453,8.241
		C347.942,200.137,348.074,202.079,348.066,204.075z"/>
	<path style="fill:#FEFEFE;" d="M382.684,207.147c0.039-0.813,0.065-2.475,0.207-4.128c0.473-5.513,2.655-10.068,8.147-11.99
		c5.602-1.96,10.489-0.035,14.48,4.057c6.478,6.641,8.34,22.403,3.747,30.491c-3.723,6.555-12.604,7.584-18.957,2.195
		C385.373,223.587,382.817,216.947,382.684,207.147z"/>
	<path style="fill:#FEFEFE;" d="M233.027,215.075c-0.082,1.311,0.07,3.934-0.693,6.56c-2.734,9.413-11.554,12.596-19.473,6.908
		c-8.574-6.158-11.806-24.485-5.85-33.177c4.709-6.874,14.548-6.801,20.56,0.274C231.992,200.843,233.325,207.08,233.027,215.075z"
		/>
</g>
</svg>
