<?xml version="1.0" encoding="iso-8859-1"?>
<!-- Generator: Adobe Illustrator 19.1.0, SVG Export Plug-In . SVG Version: 6.00 Build 0)  -->
<svg version="1.1" id="Layer_1" xmlns="http://www.w3.org/2000/svg" xmlns:xlink="http://www.w3.org/1999/xlink" x="0px" y="0px"
	 viewBox="0 0 800 600" style="enable-background:new 0 0 800 600;" xml:space="preserve">
<g>
	<path style="fill:#FEFEFE;" d="M2,215.966c0-53.2,0-106.4,0-159.6c178.085,0,356.169,0,534.254,0
		c-2.476,2.707-2.536,5.987-2.53,9.425c0.061,36.274,0.056,72.548,0.023,108.822c-0.007,7.282-1.529,8.146-7.839,4.599
		c-4.704-2.644-9.426-5.269-13.994-8.137c-4.5-2.825-8.559-2.678-13.203,0.036c-24.072,14.07-48.24,27.977-72.467,41.779
		c-4.653,2.651-6.583,6.138-6.555,11.471c0.145,27.712,0.187,55.426-0.028,83.136c-0.046,5.968,2.314,9.538,7.35,12.407
		c23.642,13.467,47.211,27.067,70.673,40.845c5.256,3.087,9.719,3.218,15.048,0.085c23.259-13.676,46.615-27.191,70.115-40.447
		c5.829-3.288,8.117-7.434,8.102-14.089c-0.162-70.52-0.184-141.041,0.024-211.56c0.021-7.294-2.652-11.555-8.968-14.923
		c-14.066-7.5-27.815-15.597-41.693-23.45c86.563,0,173.125,0,259.688,0c0,53.651,0,107.302,0,160.953
		c-0.447-0.007-0.895-0.015-1.342-0.022c-0.835-3.197-3.583-4.435-6.089-5.895c-23.513-13.696-47.079-27.302-70.513-41.131
		c-5.268-3.109-9.738-2.969-15.03,0.147c-23.446,13.805-47.011,27.413-70.698,40.799c-5.446,3.078-7.385,7.08-7.346,13.114
		c0.177,27.036,0.197,54.074-0.012,81.109c-0.049,6.363,2.155,10.378,7.819,13.534c23.375,13.024,46.6,26.32,69.733,39.769
		c5.289,3.075,9.851,3.159,15.106,0.128c13.049-7.525,26.276-14.742,39.43-22.083c2.519-1.406,5.63-2.374,5.56-6.039
		c-0.07-3.622-3.271-4.609-5.716-6.018c-22.21-12.799-44.277-25.867-66.81-38.072c-7.042-3.814-8.227-8.506-9.214-15.85
		c-2.287-17.013,3.757-27.114,19.531-33.787c7.172-3.034,11.79-3.201,18.935-0.044c14.812,6.545,22.07,15.667,19.257,32.5
		c-1.318,7.885,2.674,9.698,9.767,5.614c13.445-7.743,26.839-15.574,40.238-23.397c2.501-1.46,5.239-2.732,6.061-5.932
		c0.445-0.013,0.889-0.027,1.334-0.04c0,99.541,0,199.082,0,298.912c-133,0-266,0-399,0c24.152-13.978,48.253-28.044,72.487-41.879
		c7.003-3.998,10.153-9.492,10.084-17.598c-0.221-25.92-0.157-51.843-0.032-77.763c0.033-6.905-2.214-12.325-8.301-15.845
		c-23.587-13.636-47.183-27.256-70.785-40.865c-5.316-3.065-10.751-3.171-16.068-0.115c-23.816,13.691-47.606,27.427-71.383,41.186
		c-5.321,3.079-7.941,7.805-7.942,13.957c-0.004,27.274,0.001,54.548-0.003,81.822c-0.001,5.32,1.897,9.938,6.359,12.762
		c8.547,5.41,17.023,11.096,26.598,14.572c17.362,6.303,30.976-2.177,31.412-20.437c0.628-26.357,0.135-52.74,0.251-79.112
		c0.018-4.189-1.836-5.718-5.728-5.465c-2.42,0.158-4.996-0.56-7.665,1.725c0,1.993,0,4.447,0,6.902
		c0,24.118,0.037,48.237-0.017,72.355c-0.025,11.203-6.827,15.571-16.91,10.674c-5.456-2.65-10.474-6.197-15.914-8.885
		c-3.956-1.955-5.356-4.504-5.316-8.976c0.224-24.792,0.194-49.589,0.021-74.382c-0.029-4.118,1.268-6.455,4.903-8.513
		c21.748-12.314,43.385-24.827,64.956-37.449c3.136-1.835,5.524-1.864,8.639-0.044c21.775,12.721,43.604,25.351,65.528,37.812
		c3.216,1.828,4.304,3.958,4.288,7.512c-0.111,25.245-0.128,50.491,0.014,75.735c0.022,3.862-1.248,6.029-4.667,7.964
		c-19.792,11.202-39.715,22.22-58.981,34.278c-7.824,4.897-14.138,5.695-20.921-0.411c-7.759-6.985-15.154-5.27-23.307,1.135
		c9.834,5.896,19.383,11.622,28.933,17.348c-129.696,0-259.393,0-389.532,0C2,476.557,2,408.478,2,340.4
		c3.217,2.632,6.199,2.281,9.77,0.168c13.357-7.905,26.852-15.581,40.396-23.162c4.851-2.716,6.969-6.378,6.885-12.027
		c-0.24-16.226,0.123-32.461-0.184-48.684c-0.127-6.682,2.329-10.831,8.232-14.008c24.905-13.403,15.689-13.97,41.318,0.145
		c5.692,3.135,7.847,7.23,7.737,13.588c-0.28,16.224-0.02,32.457-0.133,48.685c-0.038,5.461,1.809,9.4,6.772,12.161
		c13.761,7.654,27.341,15.632,41.062,23.361c6.453,3.635,9.099,2.098,9.131-5.422c0.163-37.642,0.182-75.284,0.337-112.926
		c0.023-5.508-2.094-9.227-6.999-12.01c-23.872-13.543-47.67-27.22-71.358-41.083c-5.336-3.122-9.817-2.867-15.058,0.206
		c-22.511,13.201-45.16,26.171-67.828,39.102C8.385,210.601,4.939,212.906,2,215.966z M211.703,294.424
		c-0.41,5.052-1.004,10.121,1.418,14.904c-0.868,4.112,0.832,6.586,4.474,8.667c24.353,13.915,48.592,28.03,72.887,42.045
		c1.92,1.108,3.874,2.366,6.307,1.803c1.094,0.308,2.128,0.34,2.942-0.638c2.002-0.704,4.009-1.398,5.427-3.118
		c1.067-0.096,2.032-0.374,2.558-1.435c0.849-0.477,1.698-0.954,2.547-1.431c0.527-0.329,1.054-0.658,1.581-0.988
		c1.027-0.245,2.132-0.354,2.635-1.513c1.7-0.212,3.012-1.124,4.171-2.31c4.306-2,8.538-4.126,12.216-7.193
		c2.661-0.714,4.97-2.04,6.918-3.991c1.252-0.909,2.505-1.818,3.757-2.727c1.391-1.9,4.438-0.381,5.616-2.721
		c2.04-0.354,3.696-1.393,5.114-2.859c0.516-0.29,1.031-0.581,1.547-0.871c0.871-0.534,1.741-1.069,2.612-1.603
		c2.051-0.463,3.814-1.435,5.256-2.974c6.617-4.092,14.873-5.849,19.069-13.389c1.243-0.989,1.006-2.384,1.008-3.707
		c0.031-28.24,0.062-56.479,0.076-84.719c0.001-1.769,0.247-3.617-1.055-5.131c-0.388-0.455-0.777-0.911-1.165-1.366
		c-1.378-5.853-7.044-6.443-11.084-9.029c-4.576-2.017-8.078-5.947-13.017-7.32c-3.36-2.018-6.719-4.035-10.079-6.053
		c-4.038-2.311-8.077-4.622-12.115-6.934c-2.267-1.319-4.535-2.638-6.802-3.957c-3.129-1.813-6.258-3.626-9.387-5.44
		c-3.155-1.81-6.31-3.62-9.465-5.429c-2.996-1.811-5.628-4.383-9.433-4.495l0.108-0.008c-2.761-2.14-4.828-0.115-7.019,1.168
		c-1.282,0.686-2.563,1.371-3.845,2.057c-1.077,0.693-2.153,1.385-3.23,2.078c-1.189,0.619-2.378,1.237-3.567,1.856
		c-1.357,0.821-2.714,1.642-4.071,2.464c-1.643,0.508-3.229,1.113-4.305,2.571c-1.048,0.104-2.008,0.363-2.524,1.415
		c-1.761,0.332-3.254,1.119-4.359,2.566c-1.058,0.111-2.024,0.38-2.52,1.461c-1.805,0.229-3.201,1.172-4.373,2.506
		c-1.039,0.152-2.023,0.397-2.509,1.485c-1.031,0.107-2.004,0.318-2.491,1.397c-2.049-0.134-3.277,1.145-4.423,2.567
		c-1.046,0.132-2.007,0.407-2.487,1.486c-2.049,0.326-3.661,1.431-5.092,2.858c-8.838,4.442-17.426,9.315-25.605,14.89
		c-5.018,2.779-4.805,7.383-4.226,12.114c0,0.905-0.001,1.81-0.001,2.715c0.001,2.705,0.002,5.411,0.002,8.116
		c0,2.705-0.001,5.41-0.001,8.115c0.001,2.705,0.002,5.41,0.003,8.114c0,3.152-0.001,6.305-0.001,9.457
		c0.001,2.705,0.001,5.411,0.002,8.116c-0.001,2.705-0.002,5.41-0.004,8.115c0.001,2.705,0.001,5.41,0.002,8.115
		C211.703,289.007,211.703,291.715,211.703,294.424z M502.437,410.719c3.223,3.434,6.889,3.401,10.809,1.381
		c5.977-3.195,9.478-9.121,7.957-14.577c-1.558-5.593-5.298-9.243-11.387-9.752c-5.86-0.49-11.943,3.483-13.449,9.714
		C495.023,403.048,496.854,407.94,502.437,410.719z M381.044,459.568c-0.812,12.191,3.891,20.097,14.946,24.294
		c13.469,5.114,27.337,5.451,41.089,1.159c12.029-3.755,17.581-11.82,17.043-23.632c-0.461-10.11-5.346-15.37-18.286-18.251
		c-10.09-2.247-20.394-3.514-30.544-5.517c-3.921-0.774-8.359-1.76-8.191-7.271c0.157-5.161,3.76-7.494,8.161-8.609
		c7.338-1.859,14.768-1.631,22.106,0.057c3.868,0.89,7.652,2.876,8.694,6.79c2.429,9.121,8.741,6.685,15.051,5.986
		c0.414-9.747-3.138-17.535-11.466-21.59c-14.936-7.273-30.584-7.425-45.659-0.339c-8.632,4.057-11.792,11.861-10.856,21.397
		c0.882,8.977,6.56,13.5,14.434,15.819c4.504,1.326,9.206,2.031,13.852,2.817c7.53,1.274,15.266,1.349,22.57,3.939
		c3.126,1.109,5.855,2.672,6.105,6.394c0.263,3.923-1.262,7.125-4.833,8.948c-1.976,1.008-4.148,1.868-6.324,2.204
		c-7.163,1.106-14.399,1.073-21.543-0.031c-4.976-0.769-10.543-2.286-11.687-7.772C393.759,457.016,387.606,458.972,381.044,459.568
		z M698.005,264.261c0.739,3.487-1.615,7.874,1.585,10.299c4.431,3.357,9.5,7.558,14.559,7.944
		c5.445,0.415,10.381-4.71,15.231-7.889c2.907-1.906,1.568-5.45,1.426-8.194c-0.213-4.102,2.11-9.156-1.708-12.114
		c-4.373-3.387-9.682-7.653-14.596-7.668c-4.901-0.015-10.054,4.413-14.649,7.548C696.304,256.61,698.858,260.924,698.005,264.261z"
		/>
	<path style="fill:#333333;" d="M540.312,56.366c13.878,7.854,27.626,15.95,41.693,23.45c6.316,3.368,8.989,7.628,8.968,14.923
		c-0.208,70.52-0.186,141.04-0.024,211.56c0.015,6.655-2.273,10.801-8.102,14.089c-23.5,13.256-46.856,26.771-70.115,40.447
		c-5.328,3.133-9.791,3.002-15.048-0.085c-23.462-13.779-47.031-27.378-70.673-40.845c-5.036-2.869-7.396-6.439-7.35-12.407
		c0.215-27.711,0.173-55.425,0.028-83.136c-0.028-5.333,1.902-8.82,6.555-11.471c24.227-13.802,48.395-27.709,72.467-41.779
		c4.644-2.714,8.703-2.861,13.203-0.036c4.567,2.868,9.29,5.493,13.994,8.137c6.31,3.547,7.832,2.683,7.839-4.599
		c0.033-36.274,0.039-72.548-0.023-108.822c-0.006-3.438,0.054-6.719,2.53-9.425C537.607,56.366,538.959,56.366,540.312,56.366z
		 M533.599,268.618c0-18.922-0.587-18.083-13.705-27.259c-10.526-7.363-18.407-6.566-29.399-0.356
		c-10.971,6.198-14.344,12.868-14.386,25.144c-0.042,12.336,3.619,18.811,14.386,25.118c11.074,6.487,18.841,6.302,29.514-0.27
		C529.995,284.847,537.455,279.341,533.599,268.618z"/>
	<path style="fill:#333333;" d="M2,215.966c2.939-3.06,6.385-5.365,10.079-7.472c22.669-12.931,45.317-25.901,67.828-39.102
		c5.241-3.074,9.722-3.329,15.058-0.206c23.688,13.862,47.486,27.539,71.358,41.083c4.905,2.783,7.021,6.502,6.999,12.01
		c-0.155,37.642-0.175,75.284-0.337,112.926c-0.033,7.52-2.678,9.057-9.131,5.422c-13.72-7.728-27.301-15.707-41.062-23.361
		c-4.963-2.76-6.81-6.7-6.772-12.161c0.113-16.228-0.147-32.461,0.133-48.685c0.11-6.358-2.045-10.453-7.737-13.588
		c-25.629-14.115-16.412-13.548-41.318-0.145c-5.903,3.177-8.359,7.326-8.232,14.008c0.307,16.223-0.056,32.459,0.184,48.684
		c0.084,5.649-2.034,9.311-6.885,12.027c-13.544,7.581-27.039,15.258-40.396,23.162c-3.571,2.113-6.552,2.464-9.77-0.168
		c0-14.878,0-29.756,0-44.634c2.187-7.664,2.17-15.329,0-22.993C2,253.837,2,234.902,2,215.966z"/>
	<path style="fill:#689E63;" d="M391.532,544.634c-9.549-5.726-19.099-11.452-28.933-17.348c8.153-6.406,15.548-8.12,23.307-1.135
		c6.783,6.106,13.097,5.308,20.921,0.411c19.267-12.058,39.189-23.076,58.981-34.278c3.419-1.935,4.689-4.102,4.667-7.964
		c-0.142-25.244-0.125-50.49-0.014-75.735c0.016-3.554-1.073-5.684-4.288-7.512c-21.924-12.461-43.753-25.091-65.528-37.812
		c-3.115-1.82-5.503-1.791-8.639,0.044c-21.571,12.622-43.208,25.135-64.956,37.449c-3.635,2.058-4.932,4.395-4.903,8.513
		c0.173,24.793,0.202,49.589-0.021,74.382c-0.04,4.472,1.36,7.021,5.316,8.976c5.44,2.689,10.458,6.236,15.914,8.885
		c10.083,4.896,16.885,0.529,16.91-10.674c0.053-24.118,0.017-48.236,0.017-72.355c0-2.455,0-4.909,0-6.902
		c2.669-2.285,5.244-1.568,7.665-1.725c3.892-0.254,5.747,1.276,5.728,5.465c-0.116,26.372,0.378,52.755-0.251,79.112
		c-0.435,18.26-14.05,26.74-31.412,20.437c-9.575-3.476-18.051-9.163-26.598-14.572c-4.462-2.824-6.359-7.442-6.359-12.762
		c0.004-27.274-0.001-54.548,0.003-81.822c0.001-6.152,2.622-10.878,7.942-13.957c23.777-13.759,47.567-27.495,71.383-41.186
		c5.317-3.057,10.753-2.951,16.068,0.115c23.602,13.609,47.198,27.23,70.785,40.865c6.088,3.519,8.335,8.939,8.301,15.845
		c-0.125,25.921-0.189,51.844,0.032,77.763c0.069,8.106-3.082,13.601-10.084,17.598c-24.234,13.835-48.335,27.901-72.487,41.879
		C397.844,544.634,394.688,544.634,391.532,544.634z"/>
	<path style="fill:#565656;" d="M798.658,217.296c0.447,0.007,0.895,0.015,1.342,0.022c0,9.468,0,18.936,0,28.403
		c-0.445,0.013-0.889,0.027-1.334,0.04C798.663,236.274,798.661,226.785,798.658,217.296z"/>
	<path style="fill:#404040;" d="M2,272.773c2.17,7.664,2.187,15.329,0,22.993C2,288.102,2,280.437,2,272.773z"/>
	<path style="fill:#333333;" d="M798.658,217.296c0.003,9.489,0.006,18.977,0.009,28.466c-0.822,3.2-3.561,4.472-6.061,5.932
		c-13.399,7.823-26.793,15.654-40.238,23.397c-7.092,4.084-11.084,2.271-9.767-5.614c2.813-16.833-4.445-25.955-19.257-32.5
		c-7.145-3.157-11.763-2.99-18.935,0.044c-15.773,6.673-21.818,16.775-19.531,33.787c0.987,7.344,2.172,12.036,9.214,15.85
		c22.534,12.205,44.6,25.273,66.81,38.072c2.445,1.409,5.646,2.396,5.716,6.018c0.07,3.664-3.041,4.633-5.56,6.039
		c-13.155,7.341-26.382,14.557-39.43,22.083c-5.255,3.031-9.817,2.947-15.106-0.128c-23.133-13.449-46.358-26.745-69.733-39.769
		c-5.664-3.156-7.868-7.171-7.819-13.534c0.209-27.035,0.189-54.074,0.012-81.109c-0.04-6.034,1.899-10.036,7.346-13.114
		c23.688-13.386,47.253-26.994,70.698-40.799c5.292-3.116,9.762-3.256,15.03-0.147c23.434,13.83,47.001,27.435,70.513,41.131
		C795.075,212.861,797.822,214.099,798.658,217.296z"/>
	<path style="fill:#689E63;" d="M381.044,459.568c6.562-0.596,12.715-2.552,14.663,6.792c1.144,5.486,6.711,7.004,11.687,7.772
		c7.144,1.104,14.38,1.137,21.543,0.031c2.175-0.336,4.348-1.195,6.324-2.204c3.571-1.823,5.097-5.026,4.833-8.948
		c-0.25-3.722-2.979-5.285-6.105-6.394c-7.304-2.59-15.039-2.665-22.57-3.939c-4.646-0.786-9.348-1.491-13.852-2.817
		c-7.874-2.319-13.552-6.842-14.434-15.819c-0.937-9.536,2.224-17.34,10.856-21.397c15.075-7.086,30.723-6.934,45.659,0.339
		c8.327,4.055,11.88,11.843,11.466,21.59c-6.31,0.699-12.622,3.135-15.051-5.986c-1.043-3.914-4.826-5.9-8.694-6.79
		c-7.337-1.689-14.767-1.916-22.106-0.057c-4.401,1.115-8.004,3.448-8.161,8.609c-0.167,5.511,4.27,6.497,8.191,7.271
		c10.15,2.003,20.454,3.27,30.544,5.517c12.94,2.882,17.825,8.142,18.286,18.251c0.538,11.812-5.013,19.877-17.043,23.632
		c-13.751,4.293-27.619,3.955-41.089-1.159C384.935,479.665,380.232,471.759,381.044,459.568z"/>
	<path style="fill:#3E863D;" d="M296.79,361.843c-2.433,0.563-4.387-0.696-6.307-1.803c-24.296-14.016-48.534-28.131-72.887-42.045
		c-3.643-2.081-5.343-4.556-4.474-8.667c5.734-0.577,5.956-5.801,8.001-9.489c2.139-1.787,2.72-4.505,4.048-6.777
		c1.736-1.366,2.475-3.239,2.729-5.36c2.636-1.489,3.549-4.011,4.059-6.774c1.732-2.032,3.712-3.916,4.046-6.782
		c1.747-2.019,3.721-3.902,4.053-6.769c1.317-1.327,2.634-2.653,3.951-3.98c1.374,2.252,2.748,4.504,4.122,6.756
		c0.281,2.099,1.044,3.951,2.737,5.326c0.042,1.927,0.997,3.279,2.645,4.194c0.674,3.025,1.93,5.751,4.109,8.003
		c0.046,1.924,1.017,3.266,2.64,4.197c0.678,3.025,1.951,5.745,4.109,8.011c0.285,2.095,1.039,3.949,2.738,5.317
		c0.881,1.404,1.762,2.807,2.643,4.211c0.681,3.016,1.919,5.744,4.114,7.979c1.335,2.299,2.669,4.597,4.004,6.896
		c0.285,2.091,1.077,3.921,2.733,5.305c0.428,3.179,3.033,5.236,4.154,8.058c0.862,1.376,1.725,2.752,2.587,4.128
		c0.299,2.114,1.057,3.989,2.78,5.365c1.386,2.688,2.771,5.376,4.157,8.063C295.118,357.419,295.954,359.631,296.79,361.843z"/>
	<path style="fill:#69A25D;" d="M330.866,343.218c-3.678,3.067-7.91,5.193-12.216,7.192c-0.052-48.872-0.104-97.744-0.156-146.615
		c0.901,0.903,1.802,1.805,2.702,2.708c1.155,6.185,6.001,10.523,8.119,16.227c0,37.631-0.022,75.262,0.045,112.893
		C329.366,338.186,328.309,341.102,330.866,343.218z"/>
	<path style="fill:#6BBE47;" d="M215.927,213.32c8.179-5.575,16.767-10.448,25.605-14.89c4.072,0.949,2.49,4.27,2.504,6.604
		c0.116,18.989,0.054,37.979,0.047,56.969c-3.083-1.262-2.896-5.095-5.373-6.833c-0.577-3.846-2.983-6.652-5.378-9.464
		c-1.775-4.339-3.26-8.838-6.762-12.222c-0.064-1.08-0.3-2.073-1.35-2.651C222.305,224.898,219.779,218.757,215.927,213.32z"/>
	<path style="fill:#689F63;" d="M698.005,264.261c0.853-3.337-1.701-7.652,1.848-10.074c4.595-3.136,9.748-7.563,14.649-7.548
		c4.914,0.015,10.223,4.281,14.596,7.668c3.818,2.957,1.495,8.012,1.708,12.114c0.142,2.744,1.481,6.288-1.426,8.194
		c-4.85,3.179-9.786,8.304-15.231,7.889c-5.059-0.386-10.128-4.586-14.559-7.944C696.39,272.135,698.743,267.749,698.005,264.261z"
		/>
	<path style="fill:#73AA63;" d="M296.79,361.843c-0.836-2.212-1.672-4.424-2.51-6.636c2.162-2.306,1.172-5.159,1.175-7.75
		c0.061-57.243,0.026-114.485,0.111-171.728c0.004-2.583-1.615-6.177,2.779-7.232c0,0-0.108,0.008-0.108,0.008
		c0.44,0.943,0.88,1.886,1.32,2.828c0.058,63.29,0.116,126.581,0.174,189.871C298.918,362.184,297.884,362.151,296.79,361.843z"/>
	<path style="fill:#629B58;" d="M330.866,343.218c-2.557-2.115-1.5-5.031-1.505-7.595c-0.067-37.631-0.046-75.262-0.045-112.893
		c1.802,2.254,3.605,4.508,5.408,6.762c1.164,3.669,1.402,7.419,1.393,11.263c-0.07,30.328-0.064,60.655,0.007,90.983
		c0.006,2.547-1.059,5.483,1.661,7.49C335.836,341.177,333.528,342.503,330.866,343.218z"/>
	<path style="fill:#75AB64;" d="M298.346,168.497c-4.394,1.055-2.776,4.649-2.779,7.232c-0.085,57.243-0.051,114.485-0.111,171.728
		c-0.003,2.591,0.987,5.444-1.175,7.75c-1.384-2.689-2.77-5.377-4.156-8.064c1.675-1.333,1.31-3.225,1.31-4.981
		c-0.027-57.499-0.068-114.998-0.107-172.496C293.518,168.383,295.586,166.357,298.346,168.497z"/>
	<path style="fill:#71A962;" d="M299.732,361.205c-0.058-63.29-0.116-126.581-0.174-189.871c2.165,1.768,2.705,4.511,4.057,6.766
		c0.001,57.238-0.017,114.475,0.057,171.713c0.004,2.774-1.191,5.92,1.488,8.274C303.741,359.807,301.734,360.501,299.732,361.205z"
		/>
	<path style="fill:#5E9655;" d="M337.785,339.227c-2.72-2.006-1.655-4.942-1.661-7.49c-0.071-30.328-0.077-60.655-0.007-90.983
		c0.009-3.844-0.229-7.594-1.393-11.263c1.903,0.908,2.978,2.571,4.201,4.212c5.721,7.671,11.588,15.233,17.403,22.834
		c0.014,0.445,0.021,0.889,0.022,1.334c-1.067,0.589-1.318,1.591-1.361,2.697c-0.442,0.007-0.883,0.02-1.324,0.041
		c-1.292-0.515-2.188-1.426-2.713-2.709c-1.352-2.254-2.704-4.509-4.056-6.763c-1.293-2.499-2.301-5.211-5.353-7.091
		c0,31.111,0,61.783,0,92.454C340.289,337.409,339.037,338.318,337.785,339.227z"/>
	<path style="fill:#77B162;" d="M284.758,337.65c-1.122-2.821-3.726-4.878-4.154-8.058c2.235-1.983,1.332-4.632,1.334-6.994
		c0.052-46.364,0.04-92.729,0.036-139.093c0-2.684,0.345-5.431-1.288-7.85c1.189-0.619,2.378-1.237,3.567-1.855
		c2.785,1.97,1.734,4.923,1.737,7.476c0.058,49.777,0.056,99.553,0.004,149.33C285.992,332.976,286.887,335.611,284.758,337.65z"/>
	<path style="fill:#78B361;" d="M280.686,175.655c1.633,2.419,1.288,5.166,1.288,7.85c0.004,46.364,0.016,92.729-0.036,139.093
		c-0.003,2.362,0.901,5.011-1.334,6.994c-1.656-1.384-2.448-3.214-2.733-5.306c0.016-46.605,0.041-93.21,0.018-139.814
		c-0.001-2.159,0.748-4.561-1.274-6.353C277.972,177.298,279.329,176.477,280.686,175.655z"/>
	<path style="fill:#6BA35E;" d="M318.495,203.794c0.052,48.871,0.104,97.743,0.156,146.615c-1.16,1.188-2.472,2.1-4.171,2.311
		c-0.013-51.898-0.027-103.796-0.04-155.694C316.603,198.796,317.136,201.543,318.495,203.794z"/>
	<path style="fill:#77B45F;" d="M276.615,178.119c2.022,1.792,1.273,4.194,1.274,6.353c0.024,46.604-0.002,93.209-0.018,139.814
		c-1.335-2.298-2.67-4.596-4.004-6.895c-0.002-43.036,0.015-86.072-0.052-129.108c-0.004-2.563,1.056-5.48-1.504-7.594
		C273.386,179.232,274.971,178.627,276.615,178.119z"/>
	<path style="fill:#3E863D;" d="M380.756,312.083c-4.196,7.54-12.452,9.297-19.069,13.389c-1.408-1.142-1.26-2.744-1.26-4.295
		c-0.003-13.363-0.002-26.725,0-40.088c0-1.558-0.104-3.153,1.347-4.254c5.866,9.915,11.732,19.829,17.598,29.744
		C379.833,308.413,380.294,310.248,380.756,312.083z"/>
	<path style="fill:#76B55C;" d="M272.31,180.69c2.561,2.114,1.5,5.03,1.504,7.594c0.067,43.036,0.05,86.072,0.052,129.108
		c-2.195-2.235-3.433-4.964-4.113-7.98c0.011-42.436,0.022-84.871,0.033-127.305C270.302,181.054,271.263,180.795,272.31,180.69z"/>
	<path style="fill:#76AD63;" d="M291.327,169.665c0.039,57.499,0.08,114.998,0.107,172.496c0.001,1.757,0.365,3.648-1.31,4.981
		c-1.723-1.376-2.481-3.251-2.78-5.365c2.257-1.969,1.354-4.621,1.356-6.981c0.05-51.743,0.041-103.486,0.03-155.229
		c-0.001-2.673,0.43-5.433-1.249-7.847C288.764,171.036,290.045,170.351,291.327,169.665z"/>
	<path style="fill:#70A761;" d="M305.16,358.088c-2.679-2.355-1.484-5.501-1.488-8.274c-0.074-57.238-0.056-114.475-0.057-171.713
		c0.899,0.904,1.798,1.808,2.697,2.712c0.005,0.894,0.01,1.788,0.015,2.682c-0.002,55.165-0.018,110.331,0.042,165.496
		c0.003,2.572-1.038,5.458,1.348,7.662C307.192,357.713,306.227,357.992,305.16,358.088z"/>
	<path style="fill:#6FA660;" d="M307.717,356.652c-2.387-2.204-1.346-5.09-1.348-7.662c-0.06-55.165-0.044-110.331-0.042-165.496
		c0.9,1.356,1.8,2.711,2.7,4.067c0,53.311-0.015,106.621,0.046,159.932c0.003,2.584-0.992,5.436,1.19,7.728
		C309.415,355.699,308.566,356.176,307.717,356.652z"/>
	<path style="fill:#77AF63;" d="M287.482,171.722c1.679,2.414,1.248,5.174,1.249,7.847c0.011,51.743,0.02,103.486-0.03,155.229
		c-0.002,2.36,0.901,5.011-1.356,6.981c-0.863-1.375-1.725-2.751-2.587-4.127c2.13-2.04,1.235-4.675,1.238-7.045
		c0.052-49.777,0.054-99.553-0.004-149.33c-0.003-2.553,1.048-5.506-1.737-7.476C285.329,173.107,286.406,172.415,287.482,171.722z"
		/>
	<path style="fill:#72B855;" d="M264.371,299.885c-2.158-2.266-3.431-4.986-4.108-8.013c0.025-32.375,0.057-64.749,0.054-97.123
		c0-2.172,0.581-4.593-1.783-6.111c1.173-1.333,2.568-2.276,4.373-2.505c2.348,1.92,1.445,4.589,1.448,6.95
		C264.402,228.683,264.378,264.284,264.371,299.885z"/>
	<path style="fill:#6EA55F;" d="M310.264,355.222c-2.182-2.293-1.188-5.144-1.19-7.728c-0.062-53.311-0.046-106.621-0.046-159.932
		c1.754,1.375,2.485,3.262,2.709,5.403c0.036,53.756,0.072,107.513,0.108,161.269C311.318,354.563,310.791,354.893,310.264,355.222z
		"/>
	<path style="fill:#6DA45F;" d="M311.845,354.234c-0.036-53.756-0.072-107.513-0.108-161.269c1.786,0.765,2.693,2.115,2.703,4.063
		c0.013,51.898,0.027,103.796,0.04,155.694C313.977,353.88,312.871,353.989,311.845,354.234z"/>
	<path style="fill:#3F863E;" d="M379.62,217.161c0.388,0.455,0.777,0.911,1.165,1.366c-0.103,12.641-0.206,25.282-0.307,37.924
		c-6.054-3.163-12.189-6.143-18.781-8.058c0.028-0.89,0.056-1.78,0.084-2.67c1.073-0.591,1.316-1.597,1.349-2.707
		c0.869-1.356,1.738-2.711,2.607-4.067c0.46-0.908,0.92-1.816,1.38-2.724c0.919-1.797,1.838-3.595,2.756-5.392
		c1.735-1.38,2.48-3.263,2.736-5.394c2.094-1.816,2.744-4.473,3.96-6.8C377.256,217.467,378.439,217.316,379.62,217.161z"/>
	<path style="fill:#70BA50;" d="M257.622,287.676c-2.179-2.252-3.435-4.978-4.108-8.005c0.007-29.385,0.014-58.768,0.021-88.152
		c0.486-1.079,1.459-1.29,2.491-1.397c2.604,2.065,1.553,4.973,1.559,7.52C257.653,227.654,257.625,257.665,257.622,287.676z"/>
	<path style="fill:#56954F;" d="M341.542,336.5c0-30.672,0-61.343,0-92.454c3.052,1.88,4.06,4.592,5.353,7.091
		c-1.694,1.32-1.337,3.212-1.338,4.972c-0.014,24.05-0.017,48.099,0.004,72.149c0.002,1.967-0.458,4.124,1.597,5.522
		C345.98,336.119,342.933,334.6,341.542,336.5z"/>
	<path style="fill:#649A59;" d="M363.129,243.017c-0.033,1.11-0.275,2.115-1.349,2.707c-3.21-0.319-4.205-3.3-5.691-5.288
		c-11.784-15.761-23.446-31.617-34.892-47.624c-4.647-6.498-10.821-11.983-13.526-19.812c3.155,1.81,6.31,3.62,9.465,5.429
		c-0.48,2.806,1.436,4.68,2.847,6.587C334.311,204.39,348.733,223.694,363.129,243.017z"/>
	<path style="fill:#679E5B;" d="M369.872,230.833c-0.919,1.797-1.838,3.595-2.756,5.393c-0.387-0.225-0.897-0.358-1.146-0.688
		c-11.066-14.65-22.109-29.317-33.152-43.985c-1.052-1.398-0.015-2.532,0.507-3.727c4.038,2.311,8.077,4.622,12.115,6.934
		c-1.598,3.015,1.211,4.641,2.448,6.374C355.043,211.157,362.51,220.958,369.872,230.833z"/>
	<path style="fill:#75B659;" d="M269.786,182.106c-0.011,42.435-0.022,84.869-0.033,127.305c-0.882-1.403-1.763-2.806-2.644-4.21
		c-0.004-37.677,0.013-75.353-0.055-113.03c-0.005-2.548,1.039-5.47-1.627-7.499C266.532,183.225,268.025,182.438,269.786,182.106z"
		/>
	<path style="fill:#51924B;" d="M347.158,333.779c-2.055-1.398-1.596-3.555-1.597-5.522c-0.021-24.05-0.018-48.099-0.004-72.149
		c0.001-1.759-0.356-3.652,1.338-4.972c1.352,2.254,2.704,4.509,4.056,6.763c-0.443,0.984-1.27,1.968-1.273,2.954
		c-0.077,22.054-0.057,44.108-0.077,66.162c-0.002,1.96,0.282,3.626,2.671,3.905C350.854,332.386,349.197,333.425,347.158,333.779z"
		/>
	<path style="fill:#639958;" d="M307.671,173c2.704,7.829,8.879,13.313,13.526,19.812c11.446,16.008,23.109,31.863,34.892,47.624
		c1.486,1.988,2.482,4.969,5.691,5.288c-0.028,0.89-0.056,1.78-0.083,2.67c-0.43,0.003-0.86,0.012-1.291,0.028
		c-2.404,0.017-3.287-1.771-4.514-3.444c-13.846-18.883-27.652-37.801-41.839-56.426c-2.123-2.787-2.799-7.587-7.741-7.739
		c-0.899-0.904-1.798-1.808-2.697-2.712c-1.352-2.256-1.891-4.998-4.057-6.766c-0.44-0.943-0.88-1.885-1.32-2.828
		C302.043,168.617,304.676,171.189,307.671,173z"/>
	<path style="fill:#74B757;" d="M265.427,184.672c2.666,2.03,1.622,4.951,1.627,7.499c0.068,37.677,0.051,75.354,0.055,113.03
		c-1.699-1.368-2.453-3.222-2.738-5.317c0.007-35.6,0.031-71.201-0.016-106.802c-0.003-2.36,0.9-5.029-1.448-6.95
		C263.403,185.052,264.369,184.783,265.427,184.672z"/>
	<path style="fill:#6CBD49;" d="M244.082,262.003c0.008-18.99,0.069-37.98-0.047-56.969c-0.014-2.335,1.568-5.656-2.504-6.604
		c1.431-1.427,3.043-2.532,5.092-2.858c2.384,1.869,1.497,4.523,1.502,6.864c0.051,22.573,0.015,45.145,0.005,67.718
		c-1.374-2.252-2.748-4.504-4.121-6.758C244.035,262.931,244.058,262.467,244.082,262.003z"/>
	<path style="fill:#F3F7F3;" d="M502.437,410.719c-5.582-2.779-7.414-7.671-6.069-13.234c1.505-6.231,7.589-10.204,13.449-9.714
		c6.089,0.509,9.829,4.159,11.387,9.752c1.52,5.457-1.98,11.382-7.957,14.577c0.264-2.119-1.96-2.67-2.642-4.193
		c0.661-0.015,1.9-0.009,1.901-0.047c0.164-4.618,0.297-9.241,0.21-13.859c-0.008-0.414-1.471-0.801-2.259-1.201
		c-5.293-2.243-8.55-1.566-8.07,5.262c0.264,3.748,0.054,7.53,0.058,11.296C502.442,409.812,502.439,410.265,502.437,410.719z"/>
	<path style="fill:#4E9049;" d="M352.272,330.92c-2.389-0.278-2.673-1.945-2.671-3.905c0.02-22.054,0-44.108,0.077-66.162
		c0.003-0.986,0.83-1.969,1.273-2.954c0.525,1.283,1.422,2.194,2.713,2.709c-0.001,0.899-0.002,1.798-0.003,2.696
		c0.053,22.248,0.105,44.496,0.158,66.744C353.303,330.339,352.788,330.63,352.272,330.92z"/>
	<path style="fill:#659B59;" d="M363.129,243.017c-14.396-19.323-28.818-38.627-43.146-58c-1.411-1.907-3.327-3.781-2.847-6.587
		c3.129,1.813,6.258,3.626,9.387,5.44c-1.182,1.712-0.925,3.038,0.407,4.786c8.017,10.52,15.67,21.321,23.816,31.738
		c4.894,6.258,8.288,13.759,14.991,18.557C364.867,240.306,363.998,241.661,363.129,243.017z"/>
	<path style="fill:#71B952;" d="M257.622,287.676c0.003-30.011,0.031-60.022-0.037-90.033c-0.006-2.546,1.044-5.454-1.559-7.52
		c0.485-1.088,1.47-1.332,2.509-1.485c2.363,1.517,1.783,3.938,1.783,6.11c0.003,32.374-0.03,64.748-0.054,97.123
		C258.638,290.942,257.668,289.6,257.622,287.676z"/>
	<path style="fill:#569A4C;" d="M244.082,262.003c-0.024,0.464-0.048,0.928-0.073,1.393c-1.318,1.328-2.635,2.654-3.952,3.981
		c-8.915-5.982-18.988-9.758-28.354-14.882c-0.001-2.705-0.002-5.41-0.003-8.114c7.013,3.52,14,7.095,21.058,10.523
		c1.848,0.898,3.857,2.885,5.95,0.266C241.186,256.908,240.999,260.742,244.082,262.003z"/>
	<path style="fill:#6EBB4D;" d="M253.535,191.52c-0.007,29.383-0.014,58.767-0.021,88.152c-1.649-0.913-2.604-2.265-2.646-4.192
		c0-24.647,0.029-49.294-0.043-73.941c-0.007-2.545,1.024-5.475-1.713-7.452C250.257,192.665,251.486,191.385,253.535,191.52z"/>
	<path style="fill:#468B43;" d="M361.773,276.835c-1.451,1.101-1.347,2.696-1.347,4.254c-0.002,13.363-0.003,26.725,0,40.088
		c0,1.551-0.148,3.154,1.26,4.295c-1.442,1.539-3.205,2.511-5.256,2.974c-0.021-17.573-0.057-35.146-0.044-52.719
		c0.001-1.958-0.568-4.119,1.332-5.659c1.353,1.803,2.705,3.607,4.058,5.41C361.775,275.93,361.774,276.382,361.773,276.835z"/>
	<path style="fill:#56984D;" d="M238.709,255.17c-2.093,2.619-4.102,0.631-5.95-0.266c-7.058-3.428-14.044-7.003-21.058-10.523
		c0-2.705,0.001-5.41,0.001-8.115c7.209,3.147,14.419,6.294,21.628,9.44C235.726,248.518,238.132,251.325,238.709,255.17z"/>
	<path style="fill:#6DBC4B;" d="M249.111,194.086c2.737,1.977,1.706,4.906,1.713,7.452c0.072,24.647,0.043,49.294,0.043,73.941
		c-1.693-1.374-2.456-3.226-2.737-5.326c0.01-22.572,0.046-45.145-0.005-67.717c-0.005-2.341,0.882-4.995-1.502-6.864
		C247.104,194.493,248.065,194.218,249.111,194.086z"/>
	<path style="fill:#579F4A;" d="M236.004,274.146c-0.334,2.866-2.315,4.75-4.047,6.782c-5.732-5.521-13.134-7.927-20.253-10.859
		c-0.001-2.705-0.001-5.411-0.002-8.116C220.857,263.916,229.381,267.137,236.004,274.146z"/>
	<path style="fill:#579D4B;" d="M236.004,274.146c-6.623-7.009-15.147-10.23-24.302-12.194c0-3.152,0.001-6.305,0.001-9.457
		c9.365,5.124,19.438,8.9,28.354,14.882C239.726,270.244,237.752,272.127,236.004,274.146z"/>
	<path style="fill:#669C5A;" d="M365.736,238.95c-6.703-4.798-10.097-12.299-14.991-18.557
		c-8.146-10.417-15.799-21.218-23.816-31.738c-1.332-1.748-1.589-3.074-0.407-4.786c2.267,1.319,4.535,2.638,6.802,3.957
		c-0.522,1.195-1.559,2.33-0.507,3.727c11.043,14.668,22.086,29.335,33.152,43.985c0.249,0.33,0.759,0.463,1.146,0.688
		C366.656,237.134,366.196,238.042,365.736,238.95z"/>
	<path style="fill:#699F5C;" d="M369.872,230.833c-7.362-9.876-14.83-19.676-21.984-29.7c-1.237-1.733-4.046-3.359-2.448-6.374
		c3.36,2.018,6.719,4.035,10.078,6.053c-0.309,0.305-0.927,0.816-0.882,0.884c5.52,8.269,10.612,16.868,17.972,23.743
		C372.352,227.57,371.608,229.453,369.872,230.833z"/>
	<path style="fill:#498D45;" d="M357.719,270.068c-1.9,1.54-1.331,3.701-1.332,5.659c-0.014,17.573,0.022,35.146,0.044,52.719
		c-0.871,0.534-1.741,1.069-2.612,1.603c-0.053-22.248-0.105-44.496-0.158-66.744c1.803,1.803,3.607,3.607,5.41,5.41
		C358.62,269.166,358.169,269.617,357.719,270.068z"/>
	<path style="fill:#6AA15D;" d="M372.609,225.44c-7.36-6.875-12.452-15.474-17.972-23.743c-0.045-0.068,0.573-0.579,0.882-0.884
		c4.94,1.372,8.441,5.302,13.017,7.319c1.585,4.338,4.071,7.987,8.033,10.508C375.352,220.967,374.702,223.624,372.609,225.44z"/>
	<path style="fill:#58A249;" d="M211.705,270.068c7.119,2.933,14.521,5.338,20.253,10.859c-0.509,2.764-1.422,5.285-4.059,6.774
		c-3.721-6.03-10.46-6.922-16.198-9.518C211.702,275.478,211.703,272.773,211.705,270.068z"/>
	<path style="fill:#55954E;" d="M233.331,245.706c-7.209-3.147-14.419-6.294-21.628-9.44c-0.001-2.705-0.002-5.411-0.003-8.116
		c5.115,1.336,8.711,6.906,14.87,5.334C230.071,236.868,231.556,241.367,233.331,245.706z"/>
	<path style="fill:#5A9655;" d="M380.475,256.45c0.103-12.641,0.206-25.282,0.309-37.923c1.303,1.514,1.056,3.362,1.056,5.131
		c-0.014,28.24-0.046,56.479-0.076,84.719c-0.001,1.322,0.235,2.718-1.008,3.707c-0.462-1.835-0.923-3.67-1.385-5.504
		c2.292-8.034,1.039-16.232,1.131-24.368c-0.003-1.351-0.006-2.703-0.009-4.054c0-1.373,0.001-2.746,0.003-4.117
		c-0.002-1.325-0.006-2.65-0.009-3.976c-0.004-1.362-0.008-2.724-0.01-4.086c-0.002-1.799-0.005-3.598-0.009-5.397
		C380.471,259.204,380.473,257.827,380.475,256.45z"/>
	<path style="fill:#58A448;" d="M211.701,278.183c5.738,2.595,12.477,3.488,16.198,9.518c-0.253,2.121-0.993,3.995-2.729,5.361
		c-4.04-3.148-8.564-5.334-13.468-6.763C211.702,283.594,211.702,280.888,211.701,278.183z"/>
	<path style="fill:#55934F;" d="M215.927,213.32c3.853,5.437,6.379,11.578,9.292,17.513c-4.506-1.799-9.012-3.599-13.518-5.399
		C211.122,220.703,210.909,216.099,215.927,213.32z"/>
	<path style="fill:#59A747;" d="M211.703,286.299c4.903,1.43,9.427,3.615,13.468,6.763c-1.329,2.271-1.909,4.99-4.048,6.777
		c-2.606-2.733-6.336-3.512-9.419-5.415C211.703,291.715,211.703,289.007,211.703,286.299z"/>
	<path style="fill:#59A946;" d="M211.703,294.424c3.083,1.902,6.813,2.681,9.419,5.415c-2.044,3.688-2.267,8.912-8.001,9.489
		C210.699,304.545,211.293,299.476,211.703,294.424z"/>
	<path style="fill:#F9FBF9;" d="M502.437,410.719c0.002-0.454,0.005-0.907,0.007-1.361c1.522-0.035,3.198,0.324,3.995-1.564
		c0.502-1.836-1.414-5.173,2.059-5.133c3.34,0.039,1.521,3.399,2.107,5.245c0.682,1.523,2.906,2.074,2.642,4.193
		C509.326,414.12,505.66,414.153,502.437,410.719z"/>
	<path style="fill:#55934F;" d="M211.701,225.434c4.506,1.8,9.011,3.599,13.518,5.399c1.05,0.579,1.287,1.571,1.35,2.651
		c-6.158,1.572-9.754-3.998-14.869-5.335C211.7,227.245,211.7,226.34,211.701,225.434z"/>
	<path style="fill:#6DA25F;" d="M376.569,218.64c-3.962-2.521-6.448-6.17-8.033-10.508c4.039,2.586,9.706,3.175,11.084,9.029
		C378.439,217.316,377.256,217.467,376.569,218.64z"/>
	<path style="fill:#FEFEFE;" d="M533.599,268.618c3.856,10.723-3.604,16.229-13.59,22.377c-10.673,6.572-18.441,6.757-29.514,0.27
		c-10.767-6.307-14.428-12.782-14.386-25.118c0.042-12.275,3.415-18.946,14.386-25.144c10.992-6.21,18.873-7.007,29.399,0.356
		C533.012,250.536,533.599,249.696,533.599,268.618z"/>
	<path style="fill:#629857;" d="M306.313,180.813c4.942,0.153,5.618,4.952,7.741,7.739c14.187,18.626,27.993,37.543,41.839,56.426
		c1.227,1.673,2.11,3.461,4.514,3.444c0.007,0.445,0.007,0.889,0.001,1.334c-0.889,0.912-1.778,1.824-2.667,2.735
		c-9.672-10.459-16.782-22.878-25.828-33.797c-3.439-4.152-5.088-9.957-10.716-12.192c-0.901-0.903-1.802-1.805-2.702-2.708
		c-1.359-2.251-1.891-4.998-4.056-6.767c-0.009-1.947-0.917-3.297-2.703-4.063c-0.224-2.141-0.955-4.029-2.709-5.403
		c-0.9-1.356-1.8-2.711-2.7-4.067C306.322,182.601,306.317,181.707,306.313,180.813z"/>
	<path style="fill:#619757;" d="M321.197,206.502c5.627,2.234,7.276,8.04,10.716,12.192c9.045,10.919,16.155,23.337,25.827,33.797
		c-0.014,0.896-0.029,1.793-0.043,2.689c-0.456,0.453-0.913,0.905-1.369,1.358c-5.815-7.601-11.682-15.163-17.403-22.834
		c-1.224-1.641-2.298-3.305-4.201-4.212c-1.803-2.254-3.605-4.508-5.408-6.762C327.199,217.025,322.353,212.687,321.197,206.502z"/>
	<path style="fill:#488B45;" d="M380.495,274.039c-0.001,1.373-0.001,2.746,0,4.119c-7.14-3.147-14.282-6.295-21.424-9.442
		c-1.803-1.803-3.607-3.607-5.41-5.41c0.001-0.899,0.002-1.798,0.003-2.696c0.441-0.021,0.883-0.034,1.325-0.041
		C362.925,266.13,372.094,269.357,380.495,274.039z"/>
	<path style="fill:#468A43;" d="M356.328,256.537c0.456-0.453,0.913-0.905,1.369-1.358c7.682,3.411,14.729,8.161,22.778,10.798
		c0.004,1.362,0.008,2.724,0.014,4.087c-8.833-2.504-17-6.331-24.139-12.193C356.349,257.427,356.342,256.982,356.328,256.537z"/>
	<path style="fill:#468A44;" d="M356.35,257.871c7.139,5.862,15.306,9.689,24.139,12.193c0.002,1.326,0.005,2.651,0.007,3.976
		c-8.402-4.683-17.572-7.909-25.508-13.471C355.032,259.462,355.282,258.46,356.35,257.871z"/>
	<path style="fill:#4D8E48;" d="M380.502,282.211c-0.093,8.136,1.161,16.334-1.131,24.368c-5.866-9.915-11.732-19.83-17.598-29.744
		c0.001-0.452,0.002-0.904,0.003-1.357C368.723,275.763,373.99,280.717,380.502,282.211z"/>
	<path style="fill:#41873F;" d="M360.408,249.755c0.006-0.445,0.006-0.889-0.001-1.334c0.43-0.016,0.861-0.025,1.29-0.028
		c6.591,1.914,12.726,4.894,18.78,8.057c-0.004,1.376-0.007,2.753-0.007,4.13C373.468,257.559,365.417,256.477,360.408,249.755z"/>
	<path style="fill:#72A56E;" d="M510.604,407.907c-0.586-1.847,1.233-5.207-2.107-5.245c-3.472-0.04-1.557,3.297-2.059,5.133
		c-1.429,0.26-2.827,0.122-2.821-1.669c0.016-4.288-0.905-8.664,0.709-12.919c2.2-0.146,4.165-0.277,6.13-0.408
		c0.787,0.4,2.251,0.787,2.259,1.201c0.087,4.618-0.046,9.24-0.21,13.859C512.504,407.898,511.265,407.893,510.604,407.907z"/>
	<path style="fill:#F0F5F0;" d="M510.457,392.801c-1.965,0.131-3.93,0.261-6.13,0.408c-1.613,4.255-0.693,8.63-0.709,12.919
		c-0.006,1.791,1.391,1.928,2.821,1.669c-0.797,1.887-2.473,1.528-3.995,1.563c-0.004-3.767,0.206-7.548-0.058-11.296
		C501.906,391.235,505.163,390.557,510.457,392.801z"/>
	<path style="fill:#4A8C46;" d="M380.502,282.211c-6.512-1.494-11.779-6.448-18.726-6.733c-1.353-1.803-2.705-3.607-4.058-5.41
		c0.451-0.451,0.902-0.902,1.353-1.353c7.142,3.147,14.284,6.295,21.424,9.442C380.496,279.508,380.499,280.859,380.502,282.211z"/>
	<path style="fill:#428841;" d="M360.408,249.755c5.009,6.721,13.061,7.803,20.063,10.826c0.002,1.799,0.005,3.598,0.007,5.397
		c-8.051-2.637-15.098-7.386-22.78-10.798c0.014-0.896,0.028-1.793,0.043-2.689C358.629,251.579,359.518,250.667,360.408,249.755z"
		/>
</g>
</svg>
