<?xml version="1.0" encoding="iso-8859-1"?>
<!-- Generator: Adobe Illustrator 19.1.0, SVG Export Plug-In . SVG Version: 6.00 Build 0)  -->
<svg version="1.1" id="logo-jquery_xA0_Image_1_" xmlns="http://www.w3.org/2000/svg" xmlns:xlink="http://www.w3.org/1999/xlink"
	 x="0px" y="0px" viewBox="0 0 512 512" style="enable-background:new 0 0 512 512;" xml:space="preserve">
<g>
	<path style="fill:#373737;" d="M234.749,262.304c3.393,0.241,5.992,0.426,9.157,0.651c-1.152,4.565-2.201,8.848-3.321,13.112
		c-0.519,1.975-2.018,2.32-3.873,2.314c-14.47-0.047-28.96,0.457-43.405-0.151c-18.733-0.79-27.905-10.817-26.999-29.625
		c0.762-15.813,5.421-30.448,17.178-41.91c13.876-13.529,40.928-14.166,53.306-1.172c8.518,8.942,9.598,19.577,6.584,31.13
		C241.153,245.171,237.802,253.301,234.749,262.304z M205.722,261.461c11.286-0.006,11.303-0.001,14.427-10.728
		c1.483-5.092,3.03-10.172,4.27-15.325c0.653-2.714,1.001-5.575,0.979-8.365c-0.061-7.722-3.741-11.941-11.311-13.42
		c-9.058-1.77-17.37,2.011-21.981,10.034c-3.627,6.311-5.325,13.254-5.984,20.386c-0.923,9.98,1.936,18.402,16.11,17.428
		C203.39,261.391,204.559,261.46,205.722,261.461z"/>
	<path style="fill:#373737;" d="M371.513,265.651c-2.331,13.17-2.331,13.196-14.557,13.157c-9.798-0.031-19.67,0.607-29.277-1.912
		c-9.285-2.434-13.15-7.326-12.698-16.925c0.577-12.247,2.996-24.15,10.744-34.133c8.491-10.941,29.883-15.136,42.033-8.547
		c5.385,2.92,8.261,7.611,9.15,13.533c1,6.665,0.178,13.253-0.982,19.846c-0.516,2.933-2.425,2.677-4.43,2.677
		c-10.831,0.004-21.662-0.05-32.491,0.056c-2.257,0.022-5.449-1.229-6.087,2.497c-0.652,3.806,0.547,6.95,4.442,8.477
		c2.827,1.108,5.815,1.28,8.819,1.277C354.465,265.646,362.754,265.651,371.513,265.651z M360.522,241.794
		c1.063-3.668,0.897-6.893-1.642-9.141c-4.343-3.844-9.582-3.22-14.622-1.658c-4.583,1.42-7.588,4.439-8.055,10.04
		C344.41,242.446,352.442,241.62,360.522,241.794z"/>
	<path style="fill:#373737;" d="M314.632,214.644c-0.026,4.958-11.563,59.426-13.425,63.543
		c-11.233,0.634-22.528,1.194-33.826,0.135c-10.169-0.953-15.147-6.33-15.475-16.594c-0.35-10.938,2.827-21.392,4.491-32.051
		c0.615-3.939,1.643-7.814,2.239-11.756c0.368-2.433,1.382-3.424,3.909-3.326c4.319,0.167,8.648,0.046,13.653,0.046
		c-1.959,9.734-3.856,19.104-5.727,28.479c-0.715,3.585-1.571,7.157-2.011,10.777c-0.687,5.653,1.585,8.133,7.171,8.29
		c12.865,0.361,12.841,0.356,15.545-12.341c2.25-10.566,4.654-21.101,6.787-31.69c0.526-2.613,1.485-3.701,4.233-3.566
		C306.334,214.795,310.489,214.644,314.632,214.644z"/>
	<path style="fill:#373737;" d="M446.798,245.258c8.726-12.816,16.814-24.321,24.451-36.119c2.56-3.956,5.327-5.745,10.059-5.335
		c4.705,0.408,9.473,0.089,15.26,0.089c-7.21,9.614-13.724,18.335-20.276,27.028c-6.596,8.752-12.986,17.675-19.933,26.141
		c-4.233,5.158-5.728,11.164-7.081,17.284c-0.742,3.354-2.05,4.796-5.647,4.55c-4.616-0.315-9.269-0.077-15.37-0.077
		c9.309-15.956-0.599-29.818-3.174-44.918c5.82,0,11.28,0.017,16.739-0.009c1.894-0.009,2.599,1.173,2.97,2.75
		C445.356,239.017,445.902,241.394,446.798,245.258z"/>
	<path style="fill:#373737;" d="M379.624,278.348c4.444-20.905,8.733-41.011,12.97-61.128c0.433-2.056,1.605-2.619,3.534-2.607
		c11.817,0.075,23.64-0.136,35.449,0.199c7.627,0.216,9.936,3.557,11.077,14.574c-4.861,0.936-9.798,0.311-14.684,0.412
		c-5.657,0.117-11.325,0.193-16.975-0.038c-3.23-0.132-4.631,0.78-5.264,4.181c-2.46,13.215-5.349,26.35-7.931,39.544
		c-0.68,3.476-1.489,5.757-5.971,4.993C388.121,277.845,384.219,278.348,379.624,278.348z"/>
	<path style="fill:#373737;" d="M159.582,233.894c-2.909,13.475-5.634,25.929-8.275,38.4c-1.615,7.628-2.908,15.346-6.561,22.365
		c-4.367,8.39-11.123,11.951-20.439,10.905c-3.422-0.384-6.856-0.67-10.687-1.04c0.655-5.848,2.111-11.065,3.508-16.126
		c0.59-0.236,0.896-0.471,1.193-0.461c9.711,0.343,11.446-1.048,13.59-10.873c2.762-12.658,5.674-25.286,8.229-37.986
		c0.8-3.974,2.353-5.695,6.582-5.27C150.645,234.204,154.639,233.894,159.582,233.894z"/>
	<path style="fill:#176CB0;" d="M99.83,266.089c-5.382,11.692-20.894,19.099-35.548,18.152
		c-21.264-1.375-38.388-14.544-44.648-33.98c-3.692-11.462-1.597-27.521,6.609-32.938c-3.135,20.764,4.151,36.837,20.87,48.004
		C63.695,276.402,81.182,277.125,99.83,266.089z"/>
	<path style="fill:#176CB0;" d="M48.609,209.465c-1.454,14.445,3.936,25.566,15.587,33.604c11.458,7.904,23.75,8.271,36.579,2.736
		c-5.826,8.746-14.324,11.36-23.717,11.031c-14.417-0.506-24.906-7.779-30.94-20.734C41.91,227.068,42.148,217.898,48.609,209.465z"
		/>
	<path style="fill:#373737;" d="M163.587,214.647c-2.518,15.657-5.107,17.343-20.71,13.689c0.853-3.846,1.728-7.697,2.553-11.559
		c0.4-1.871,1.644-2.177,3.318-2.153C153.561,214.69,158.375,214.647,163.587,214.647z"/>
	<path style="fill:#176CB0;" d="M377.744,312.455c0.907-4.575,1.729-8.931,2.657-13.264c0.243-1.133,0.772-2.183,2.295-2.148
		c5.894,0.136,11.779,0.547,17.686-0.091c2.569-0.278,2.902,1.835,2.576,3.773c-0.575,3.424-1.446,6.797-2.026,10.22
		c-0.513,3.023-2.678,1.523-4.436,2.131c-0.346-4.276,2.024-7.922,1.448-11.82c-5.929-0.092-5.004,4.577-5.881,7.764
		c-1.008,3.663-0.846,3.708-5.011,3.442c0.659-3.678,1.314-7.333,2.001-11.168c-5.527-0.271-5.293,3.74-6.059,6.91
		C382.407,310.626,382.731,313.948,377.744,312.455z"/>
	<path style="fill:#176CB0;" d="M68.999,202.213c-1.48,9.065,1.737,15.476,7.828,20.677c6.052,5.167,13.496,5.425,21.318,5.158
		c-4.51,6.466-17.699,5.704-24.721-0.176C66.172,221.8,61.803,210.82,68.999,202.213z"/>
	<path style="fill:#176CB0;" d="M218.033,297.33c0.115,5.47-2.575,9.66-4.153,14.155c-0.944,2.688-3.384,0.986-5.107,1.401
		c-1.48-1.688-0.256-4.135-2.102-5.75c-2.819,1.656-2.683,8.07-8.45,5.247c-0.824-2.11-0.163-4.628-0.356-7.081
		c-0.194-2.465-0.35-4.933-0.52-7.369c4.081-0.992,4.081-0.992,5.004,7.011c4.313-0.745,1.56-7.878,7.202-7.901
		c0.561,2.676,1.098,5.236,1.646,7.851C215.09,303.947,211.33,295.978,218.033,297.33z"/>
	<path style="fill:#176CB0;" d="M354.73,290.423c-1.621,7.579-3.196,14.945-4.807,22.475c-3.062-0.116-5.745-0.638-8.457,0.047
		c-1.373,0.347-2.907,0.136-3.849-1.493c-2.377-4.112,2.408-14.26,7.142-14.437c2.943-0.11,4.796-0.773,5.013-3.893
		C349.981,290.117,351.707,289.654,354.73,290.423z M348.111,300.426c-6.485,0.867-4.845,5.362-6.083,8.583
		C347.863,308.908,346.52,304.419,348.111,300.426z"/>
	<path style="fill:#176CB0;" d="M361.042,313.022c-3.376,0.186-5.967-0.817-6.426-4.601c-0.651-5.373,2.443-10.711,6.517-11.444
		c4.882-0.878,8.269,0.73,8.761,4.158C370.79,307.372,366.647,312.935,361.042,313.022z M365.023,300.97
		c-5.669-0.736-4.9,3.408-5.664,6.048c-0.399,1.378,0.81,2.339,2.062,2.012C365.617,307.934,364.457,304.361,365.023,300.97z"/>
	<path style="fill:#176CB0;" d="M413.72,296.895c3.54-0.174,6.053,0.839,6.361,4.722c0.423,5.34-2.315,10.573-6.187,11.194
		c-2.719,0.436-5.865,1.037-7.853-1.646c-2.566-3.462-0.564-7.066,0.533-10.395C407.655,297.493,410.604,296.638,413.72,296.895z
		 M415.551,301.474c-4.714-1.784-5.088,1.207-5.509,4c-0.204,1.354-0.91,3.545,1.272,3.46
		C416.053,308.748,414.479,304.593,415.551,301.474z"/>
	<path style="fill:#176CB0;" d="M254.52,309.047c3.129,0.75,5.047-0.613,7.111-0.721c0.85,1.255,1.369,2.552-0.301,3.361
		c-2.918,1.416-6.205,2.239-9.126,0.789c-2.82-1.4-1.565-4.388-1.184-6.781c1.147-7.208,2.901-9.03,8.288-8.83
		c2.061,0.076,4.116,0.19,4.654,2.751c0.558,2.655-0.652,4.404-2.918,5.721C259.086,306.476,256.165,306.003,254.52,309.047z"/>
	<path style="fill:#176CB0;" d="M436.61,308.535c2.814,1.89,4.875-0.255,7.036-0.114c0.702,0.537,1.36,1.568,0.899,2.074
		c-2.647,2.902-6.273,3.118-9.632,2.203c-3.206-0.873-2.345-3.847-1.946-6.321c1.239-7.678,3.309-9.901,8.845-9.498
		c1.921,0.14,3.774,0.452,4.201,2.7c0.436,2.297-0.228,4.133-2.413,5.482C441.503,306.356,438.498,306.054,436.61,308.535z"/>
	<path style="fill:#176CB0;" d="M284.661,308.516c2.915,1.909,4.973-0.284,7.325-0.085c0.206,0.726,0.841,1.917,0.572,2.177
		c-2.754,2.673-6.303,3.034-9.692,2.084c-2.91-0.815-2.247-3.57-1.91-5.916c1.136-7.918,2.991-10.103,8.468-9.904
		c2.095,0.076,4.163,0.299,4.616,2.807c0.415,2.297-0.351,4.1-2.539,5.436C289.472,306.354,286.662,306.024,284.661,308.516z"/>
	<path style="fill:#176CB0;" d="M244.274,308.387c1.082,1.359,4.01,0.206,3.234,3.378c-1.766,1.747-4.406,1.858-6.593,0.777
		c-2.525-1.248-0.866-3.85-0.769-5.863c0.109-2.261,2.052-4.346-0.51-6.788c-1.361-1.298,3.989-6.601,7.216-6.998
		c1.186,1.111-1.331,4.18,2.334,4.28c1.649,0.045,0.685,2.605,0.309,2.654C243.892,300.569,245.664,305.421,244.274,308.387z"/>
	<path style="fill:#176CB0;" d="M302.095,308.207c-2.625-2.568-7.275-4.315-4.392-9.061c2.511-4.134,6.482-1.752,9.924-1.98
		c0.381,5.522-4.65,1.415-6.064,3.844c-0.424,1.718,1.216,1.981,2.243,2.565c3.583,2.04,2.986,4.819,1.286,7.61
		c-1.169,1.92-7.69,2.657-9.185,1.165c-0.387-0.386-0.669-1.193-0.551-1.703c0.244-1.052,0.967-1.677,2.212-1.338
		C298.985,309.695,300.464,310.332,302.095,308.207z"/>
	<path style="fill:#176CB0;" d="M320.735,296.971c0.656,6.049-4.828,1.175-5.949,4.691c2.239,2.37,7.794,4.507,3.629,9.486
		c-2.656,3.175-6.271,1.972-9.68,1.177c-0.53-6.23,5.215-0.242,6.232-4.443c-2.002-2.258-7.529-4.49-3.517-9.451
		C313.83,295.489,317.319,297.265,320.735,296.971z"/>
	<path style="fill:#176CB0;" d="M280.746,290.426c-1.297,6.413-2.583,12.703-3.837,19c-0.508,2.55-1.357,4.514-5.065,2.904
		c1.398-6.818,2.686-13.75,4.296-20.606C276.721,289.242,278.885,290.067,280.746,290.426z"/>
	<path style="fill:#176CB0;" d="M432.148,297.329c0.452,1.575,0.855,3.227-0.643,3.754c-4.355,1.531-4.57,5.323-5.081,8.848
		c-0.425,2.928-1.881,3.497-4.88,2.605c0.871-4.535,1.759-9.127,2.632-13.722c0.338-1.777,1.929-2.219,2.998-1.682
		C428.898,297.999,430.517,297.545,432.148,297.329z"/>
	<path style="fill:#176CB0;" d="M229.635,297.429c0.398,1.561,0.846,3.197-0.998,3.886c-3.78,1.414-4.228,4.654-4.72,7.936
		c-0.382,2.547-1.137,4.594-4.763,3.239c0.146-4.676,1.616-9.197,2.601-13.798c0.463-2.165,2.735-2.191,3.394-1.454
		C226.785,299.067,228.212,296.83,229.635,297.429z"/>
	<path style="fill:#176CB0;" d="M229.951,312.45c1.167-13.099,2.116-15.182,6.73-15.069
		C236.445,307.921,234.385,312.764,229.951,312.45z"/>
	<path style="fill:#176CB0;" d="M326.86,308.038c0.499,4.186-1.737,6.853-5.075,10.004
		C323.178,307.683,323.178,307.683,326.86,308.038z"/>
	<path style="fill:#176CB0;" d="M447.372,312.511c0.776-2.751,0.283-6.583,5.107-4.516
		C452.348,311.061,452.337,314.13,447.372,312.511z"/>
	<path style="fill:#176CB0;" d="M238.497,290.157c-0.112,3.281-1.065,5.34-4.658,4.534
		C234.245,290.253,234.245,290.253,238.497,290.157z"/>
</g>
</svg>
