<?xml version="1.0" encoding="iso-8859-1"?>
<!-- Generator: Adobe Illustrator 19.1.0, SVG Export Plug-In . SVG Version: 6.00 Build 0)  -->
<svg version="1.1" id="Layer_1" xmlns="http://www.w3.org/2000/svg" xmlns:xlink="http://www.w3.org/1999/xlink" x="0px" y="0px"
	 viewBox="0 0 800 600" style="enable-background:new 0 0 800 600;" xml:space="preserve">
<g>
	<path style="fill:#563D7B;" d="M108,510.449c0-139.633,0-279.266,0-418.898c1.982-8.233,1.457-16.882,5.093-24.895
		c11.988-26.424,31.276-44.993,58.373-55.363c6.432-2.461,13.527-1.337,20.085-3.293c139.251,0,278.503,0,417.754,0
		c9.011,1.931,18.443,1.359,27.114,5.491c25.92,12.354,44.465,31.467,54.438,58.524c2.436,6.609,1.424,13.882,3.144,20.679
		c0,139.251,0,278.503,0,417.754c-1.109,2.678-1.011,5.528-1.226,8.342c-1.183,15.456-8.442,28.374-17.977,39.896
		c-11.394,13.768-24.995,24.909-42.092,31.308c-7.617,2.851-15.712,2.054-23.4,4.005c-139.251,0-278.503,0-417.754,0
		c-2.855-1.209-5.916-1.01-8.906-1.296c-16.87-1.619-30.447-10.101-42.742-20.931c-11.838-10.428-21.309-22.627-27.201-37.508
		c-2.151-5.433-2.913-10.97-3.507-16.617C108.94,515.213,108.863,512.773,108,510.449z"/>
	<path style="fill:#FEFEFE;" d="M485.598,293.342c5.567,1.762,10.177,2.959,14.592,4.66c28.919,11.142,43.222,33.685,48.264,63.016
		c2.669,15.53,2.484,31.132-1.486,46.539c-7.24,28.1-25.8,45.906-51.735,57.046c-20.474,8.794-42.072,12.319-64.123,12.457
		c-53.026,0.331-106.056,0.087-159.084,0.251c-4.195,0.013-4.936-1.384-4.933-5.207c0.096-110.444,0.108-220.888-0.031-331.332
		c-0.006-4.652,1.393-5.627,5.77-5.615c53.028,0.143,106.057,0.029,159.085,0.13c16.838,0.032,33.46,1.76,49.5,7.47
		c41.125,14.64,56.28,45.712,52.932,86.281c-2.391,28.977-18.141,49.002-43.802,61.737
		C489.223,291.434,487.921,292.136,485.598,293.342z"/>
	<path style="fill:#563D7C;" d="M385.541,428.251c-17.918,0-35.836-0.101-53.752,0.082c-3.758,0.038-4.866-1.057-4.851-4.813
		c0.129-32.404,0.124-64.808,0.005-97.212c-0.013-3.655,0.907-4.856,4.767-4.838c35.072,0.168,70.145,0.108,105.217,0.144
		c6.134,0.006,12.191,0.911,18.043,2.648c19.567,5.809,31.399,18.553,34.483,39.016c1.765,11.713,1.254,23.298-3.223,34.293
		c-8.515,20.908-25.669,29.456-46.945,30.353c-17.885,0.755-35.827,0.155-53.743,0.155
		C385.541,428.138,385.541,428.194,385.541,428.251z"/>
	<path style="fill:#563D7C;" d="M382.172,184.218c15.44,0,30.881-0.045,46.321,0.018c8.265,0.034,16.297,1.518,23.949,4.69
		c10.104,4.19,16.889,11.4,19.895,22.068c2.999,10.647,3.683,21.44,1.422,32.226c-4.211,20.085-21.313,34.385-43.245,34.811
		c-33.156,0.644-66.332,0.248-99.498,0.426c-3.48,0.019-4.055-1.455-4.047-4.451c0.076-28.403,0.116-56.806-0.039-85.208
		c-0.021-3.881,1.291-4.742,4.919-4.705c16.773,0.172,33.549,0.076,50.324,0.076C382.172,184.186,382.172,184.202,382.172,184.218z"
		/>
</g>
</svg>
