<?xml version="1.0" encoding="utf-8"?>
<!-- Generator: Adobe Illustrator 19.1.0, SVG Export Plug-In . SVG Version: 6.00 Build 0)  -->
<svg version="1.1" id="Layer_1" xmlns="http://www.w3.org/2000/svg" xmlns:xlink="http://www.w3.org/1999/xlink" x="0px" y="0px"
	 viewBox="80 21 960 560" style="enable-background:new 80 21 960 560;" xml:space="preserve">
<style type="text/css">
	.st0{fill:#FFF8B5;}
</style>
<g>
	<path class="st0" d="M504.6,544.8c-1.7-6.1-4.3-12.1-5-18.3c-0.9-7.5-0.3-15.1-0.2-22.6c0.2-13.4,2.1-15.3,15.9-15.4
		c29.7-0.1,59.5-0.1,89.2,0c3.7,0,8.8-0.3,10.7,1.8c11,11.9,25.2,7.3,37.2,5.6c9.7-1.4,20.2-8.5,27.1-16c9.3-10.3,16-23.1,22.9-35.3
		c6.9-12.1,12.7-24.8,20.3-39.8c-12.3,4.8-23.9,1.2-32.7,11.8c-3.1,3.7-13.2,2.7-19.9,2c-4.9-0.5-9.7-3.7-14-6.4
		c-13.6-8.4-14.2-13.6-4.6-26.7c32-43.9,39-91.8,21.8-143.2c-5.3-15.8-2.4-21.1,14.4-23c7-0.8,14.4-1.4,21.1,0.2
		c5.4,1.2,12.1,4.7,14.5,9.2c4.3,8,10.3,10.1,18.1,10.7c2-55.3-88.8-133.1-160-137.4c-98.5-6-196.7,60-203.9,137.8
		c7.5-1.5,13.9-2.5,18.5-10.4c2.7-4.8,9.9-9.2,15.6-9.8c9.6-1,19.6,0.3,29.1,2.2c8,1.7,10.8,6.7,7.5,15.9
		c-19.8,54.6-12.8,105.6,23.3,151.7c5.7,7.3,4.6,12.6-1.7,18.1c-8.8,7.7-18.7,12.8-30.7,12.3c-2.3-0.1-5.9,0.4-6.8-0.9
		c-7.4-10.4-20.1-8.6-29.6-13.5c-7.4-3.9-13-11.3-18-18.8c-1.4-0.3-2.7-0.8-4.1-0.8c-30.4-0.6-42.1-10.4-48.2-40.4
		c-2.2-11-4.2-22.1-6.2-33.1c0-5.7,0-11.3,0-17c2-7.1,4.5-14.2,5.9-21.4c1.5-7.3,1.6-14.9,2.9-22.3c15.5-90.8,87.7-164.9,178-182.8
		c9.6-1.9,19.2-3.9,28.7-5.9c12.3,0,24.6,0,36.9,0c6.4,1.2,12.8,2.5,19.2,3.6C706.1,85,782.4,176,788.1,275.3
		c0.4,6.8,3.7,13.3,5.7,20c0,5.7,0,11.3,0,17c-0.9,2.7-2.5,5.3-2.6,8c-0.8,25.2-10.4,47-22.8,68.6c-18.3,31.7-33.7,65.1-52.3,96.6
		c-17.7,30-43.4,49.1-80.6,47.5c-4.6-0.2-9.3,0-13.2,0c-2.8,4.7-5,8.3-7.1,11.8C578.4,544.8,541.5,544.8,504.6,544.8z M683.3,238.9
		l-0.5-0.5c0.8,3.2,1.6,6.4,2.6,9.5c15,49.8,8.6,96-22.8,138.2c-7.5,10-5.9,15.6,5.1,21c13.1,6.4,18.5,4.6,26.3-8.6
		c3-4.6,6-9.2,9-13.8c1-1,2.3-1.8,2.9-3c25-44.8,29.4-91.9,14.1-140.6c-4.2-13.5-24.2-18.8-35.4-10
		C683.2,232.4,683.7,236.3,683.3,238.9z M438.8,409.3c22.3-1.9,26.4-9.7,14.6-27.7c-1.3-1.9-2.5-3.8-3.8-5.8
		c-1.2-2.5-2.3-5.2-3.7-7.6c-20.5-38.2-24-77.9-11.2-119.2c5.3-16.9-0.4-23.4-18.3-21.2c-9,1.1-14.4,5.9-16.9,14.7
		c-16.4,57.7-8.1,111.2,27.9,159.6C430.1,405.4,435,406.9,438.8,409.3z M343.9,268.8c12.4-1.7,17.1-8.9,19.8-21.2
		c10.7-48.4,36.4-87.8,76.5-117.1C559,43.6,725,106.2,756.5,249.9c2.7,12.3,8.6,17.3,19.8,19c-1.2-84.4-85.6-198.2-221.4-195.3
		C422.3,76.5,344.9,190,343.9,268.8z M758.2,386.9c-11.3-3-17.6,0.3-22.5,11c-11.1,23.9-23.3,47.3-35.8,70.5
		c-13.6,25.1-34.3,39.4-63.8,39.1c-6-0.1-12.1,0-19,0c0,6.2,0,11.1,0,15.8c38.7,7.4,76.3-10.1,95.4-45.4
		c14.8-27.3,28.4-55.2,42.4-82.9C756.3,392.5,757.1,389.9,758.2,386.9z M558.6,533.2L558.6,533.2c12.7-0.1,25.5,0.2,38.2-0.2
		c11.5-0.3,12.7-2.1,12.9-16.7c0.2-14.1-1.2-16.6-12.7-16.8c-24.5-0.4-49-0.4-73.6-0.1c-11.2,0.1-12.7,2.4-12.9,15.2
		c-0.2,15.3,1.3,18,12.8,18.5C535,533.6,546.8,533.2,558.6,533.2z M755.1,292.2c8.5,26.1-1.1,50.5-7.9,74.9
		c17.6,4,20.5,3.7,24.8-5.8c9.3-20.6,12.8-42.6,9.9-64.9c-1.9-14.8-14.5-22.7-29.4-20.6c-0.9,18.8-1.9,37.6-2.8,56.4
		c0.6,0,1.3,0.1,1.9,0.1C752.7,319.1,753.9,305.6,755.1,292.2z M364.7,294.8c1.3,12.6,2.6,25.1,3.9,37.7c0.6-0.1,1.2-0.1,1.7-0.2
		c-1.1-19.3-2.1-38.6-3.2-58c-21.7,3-31.2,12.8-30,32.8c0.9,14.9,3.3,30,6.8,44.5c4.3,17.8,9.3,19.8,29.3,15.6
		C365.1,343.7,357.5,320.1,364.7,294.8z M727.4,248.2c11.9,53.3,4.4,102.9-25.1,149c12.1,2.5,18.5-2.3,22.7-10.4
		c20-38.3,26.9-78.9,20.2-121.5C744,256.7,740.2,249.2,727.4,248.2z M417.8,397c-30.3-46.7-36.7-96.2-25.3-149.2
		c-13.4,2-16.8,10-18.3,19.3c-1.1,6.5-1.6,13.1-1.8,19.7c-1.4,35.1,5.9,68.4,22.2,99.5C398.9,394.9,405.5,400.3,417.8,397z"/>
</g>
</svg>
