<?xml version="1.0" encoding="utf-8"?>
<!-- Generator: Adobe Illustrator 19.1.0, SVG Export Plug-In . SVG Version: 6.00 Build 0)  -->
<svg version="1.1" id="Layer_1" xmlns="http://www.w3.org/2000/svg" xmlns:xlink="http://www.w3.org/1999/xlink" x="0px" y="0px"
	 viewBox="80 21 960 560" style="enable-background:new 80 21 960 560;" xml:space="preserve">
<style type="text/css">
	.st0{fill:none;stroke:#FFF8B5;stroke-width:10;stroke-miterlimit:10;}
</style>
<g>
	<path class="st0" d="M810,289c0,8.7,0,17.3,0,26c-0.3,1.6-0.8,3.2-1,4.8c-2.2,33.1-10.4,64.7-25.9,94
		C743.2,489.7,680.9,535,596.2,549c-7.7,1.3-15.4,2-23.2,3c-8.7,0-17.3,0-26,0c-1.6-0.3-3.2-0.8-4.8-1
		c-32.8-2.2-64.1-10.2-93.1-25.4c-76.3-39.9-122-102.3-136.1-187.5c-1.3-7.7-2-15.4-3-23.2c0-8.7,0-17.3,0-26c0.3-1.6,0.8-3.2,1-4.8
		c2.2-33.5,10.6-65.3,26.3-94.9c39.9-75.1,101.9-120.1,186-134.2c7.8-1.3,15.8-2,23.7-3c8.7,0,17.3,0,26,0c1.6,0.3,3.2,0.8,4.8,1
		c32.6,2.2,63.7,10.2,92.7,25.2C747.1,118,792.9,180.5,807,265.8C808.3,273.5,809,281.3,810,289z M422,196.5
		c27.4,81.4,54.4,161.9,81.5,242.4c1.4-0.9,1.7-1.5,1.9-2.1c15.7-47.1,31.5-94.3,47.1-141.5c0.7-2.1,0.2-4.9-0.6-7.1
		c-10.5-29.1-21.2-58.1-31.7-87.2c-1.4-3.8-3.5-5-7.3-5.1c-6.3-0.3-12.6-1-18.9-1.8c-5.2-0.7-7.9-4.3-7.4-9.4c0.5-5,3.7-8.2,8.8-8.4
		c2.3-0.1,4.6,0.4,7,0.4c24.5,0.6,48.9,1.6,73.4,1.7c13,0.1,25.9-1.4,38.9-2.1c5.8-0.3,9.6,2.9,10,8.1c0.4,5-2.5,8.7-7.9,9.7
		c-2.3,0.4-4.6,0.6-6.9,0.8c-6.2,0.6-12.4,1.1-19.2,1.7c27.1,80.7,54,160.6,81.3,241.8c0.8-2,1-2.5,1.2-3.1
		c11.2-37.4,22.6-74.8,33.7-112.3c8.8-29.7,6.1-58.3-8.8-85.5c-5.2-9.5-10.9-18.7-16.3-28.1c-5.1-8.9-8.9-18.1-10.3-28.4
		c-2.8-21.1,11.5-40.9,32.5-44.4c2.2-0.4,4.3-0.5,8-1c-62.2-52.4-131.4-70.7-209.2-51c-55.2,14-98.2,46.1-130.9,94
		c12.1,0,22.7,0.3,33.3-0.1c13.3-0.5,26.6-1.6,39.9-2.3c6.6-0.4,10.3,2.4,10.9,7.6c0.6,6-2.1,9.3-8.7,10.4c-2,0.3-4,0.5-6,0.6
		C435.1,195.4,429,195.9,422,196.5z M634.5,514.3C611,449.9,587.8,386.4,564.6,323c-0.5,0-0.9,0-1.4,0
		c-22.2,64.8-44.5,129.5-67,194.7C543.1,531.1,588.8,530,634.5,514.3z M355.3,211.5c-0.5,0-0.9,0-1.4,0
		c-24.8,59.4-25.9,119.2-0.7,178.7c21.6,51.1,58.2,88.6,107.4,113.7c0.4-0.3,0.8-0.5,1.2-0.8C426.2,405.9,390.8,308.7,355.3,211.5z
		 M673.3,495.1c0.5,0.2,0.9,0.5,1.4,0.7c60.1-37.8,97.3-91.3,108-162.1c7.3-48.4-1.4-94.4-24.7-137.5c1.2,16.6,0.9,33-1.6,49.3
		c-2.9,18.7-9.2,36.3-15.4,54.1c-21.6,61.7-42.8,123.5-64.1,185.2C675.6,488.3,674.4,491.7,673.3,495.1z"/>
</g>
</svg>
