<?xml version="1.0" encoding="utf-8"?>
<!-- Generator: Adobe Illustrator 19.1.0, SVG Export Plug-In . SVG Version: 6.00 Build 0)  -->
<svg version="1.1" id="Layer_1" xmlns="http://www.w3.org/2000/svg" xmlns:xlink="http://www.w3.org/1999/xlink" x="0px" y="0px"
	 viewBox="0 0 960 560" style="enable-background:new 0 0 960 560;" xml:space="preserve">
<style type="text/css">
	.st0{fill:none;stroke:#FFF8B5;stroke-width:5;stroke-miterlimit:10;}
</style>
<g id="Paper">
	<polygon class="st0" points="72.5,114.2 72.5,471.5 329.5,471.5 329.5,146 299.4,115.4 	"/>
	<polygon class="st0" points="300.1,116.9 330.6,147.5 300.3,147.5 	"/>
	<rect x="102" y="146.5" class="st0" width="99.6" height="63.1"/>
	<line class="st0" x1="102" y1="236.5" x2="292" y2="236.5"/>
	<line class="st0" x1="102" y1="259.5" x2="292" y2="259.5"/>
	<line class="st0" x1="102" y1="288.5" x2="292" y2="288.5"/>
	<rect x="190.8" y="319.9" class="st0" width="101.9" height="61.7"/>
	<line class="st0" x1="102" y1="400.5" x2="292" y2="400.5"/>
	<line class="st0" x1="292" y1="421.5" x2="102" y2="421.5"/>
	<polyline class="st0" points="72.5,456.8 58.7,456.8 58.7,102.8 292,102.8 292,114.2 	"/>
	<polyline class="st0" points="59.6,443.9 45.8,443.9 45.8,89.9 279.1,89.9 279.1,101.3 	"/>
</g>
<g>
	<path class="st0" d="M910.4,416.2H542.9c-6.6,0-12-5.4-12-12V155.7c0-6.6,5.4-12,12-12h367.5c6.6,0,12,5.4,12,12v248.5
		C922.4,410.8,917,416.2,910.4,416.2z"/>
	<rect x="562.2" y="157.4" class="st0" width="105.9" height="27.4"/>
	<rect x="713.3" y="171.1" class="st0" width="60.1" height="13.7"/>
	<rect x="780.3" y="171.1" class="st0" width="60.1" height="13.7"/>
	<rect x="846.1" y="171.1" class="st0" width="60.1" height="13.7"/>
	<line class="st0" x1="530" y1="201.5" x2="923" y2="201.5"/>
	<line class="st0" x1="530" y1="363.5" x2="923" y2="363.5"/>
	<rect x="576.6" y="378.3" class="st0" width="107.6" height="22.5"/>
	<path class="st0" d="M854.3,231.3"/>
	<path class="st0" d="M590.1,231.3"/>
	<path class="st0" d="M590.1,257.3"/>
	<path class="st0" d="M590.1,283.4"/>
	<path class="st0" d="M590.1,307.6"/>
	<line class="st0" x1="727" y1="382.5" x2="873" y2="382.5"/>
	<line class="st0" x1="727" y1="391.5" x2="873" y2="391.5"/>
	<line class="st0" x1="727" y1="400.5" x2="873" y2="400.5"/>
	<polyline class="st0" points="678.1,227.5 628.7,277 678.7,327 	"/>
	<polyline class="st0" points="774.4,327 823.8,277.6 773.8,227.5 	"/>
	<line class="st0" x1="692.3" y1="327" x2="749.9" y2="231.3"/>
</g>
<polyline class="st0" points="365,262.5 488,262.5 460.6,235.1 "/>
<polyline class="st0" points="365,278.5 488,278.5 460.6,305.9 "/>
</svg>
