<?xml version="1.0" encoding="utf-8"?>
<!-- Generator: Adobe Illustrator 19.1.0, SVG Export Plug-In . SVG Version: 6.00 Build 0)  -->
<svg version="1.1" id="Layer_1" xmlns="http://www.w3.org/2000/svg" xmlns:xlink="http://www.w3.org/1999/xlink" x="0px" y="0px"
	 viewBox="0 0 960 560" style="enable-background:new 0 0 960 560;" xml:space="preserve">
<style type="text/css">
	.st0{fill:#FFF8B5;}
	.st1{fill:none;stroke:#FFF8B5;stroke-width:5;stroke-miterlimit:10;}
</style>
<g id="Pencil">
	<path class="st0" d="M531,42.3c4.9,5.2,7.9,12,7.9,20.1c0,121.5,0,242.9,0,364.4c0,1.9-0.4,3.9-1,5.6
		c-15.5,38.8-31,77.7-46.5,116.5c-0.7,1.8-1.1,4.2-3.7,4.2c-2.7,0-2.8-2.5-3.6-4.3c-15.5-38.7-31-77.4-46.5-116.1
		c-0.7-1.8-1.1-3.9-1.1-5.9c-0.1-121.4,0-242.8-0.1-364.2c0-8.2,2.8-15.3,8.5-21c5.4-5.5,12.2-8.7,20.1-8.7
		c15.1-0.1,30.1-0.1,45.2,0C518,33.1,524.8,36.1,531,42.3z M504.4,409.7c0.2,0.1,0.4,0.1,0.7,0.2c0.4-1.6,1.1-3.2,1.1-4.8
		c0.1-25.3,0.1-50.7,0.1-76c0-64.7,0-129.4,0-194.2c0-3.7,0-3.7-3.8-3.7c-10,0-20,0-30,0c-5.1,0-4.7-0.5-4.7,4.6
		c0,88,0,176.1-0.1,264.1c0,5.6,0.7,10.1,5.7,13.7c3.9,2.8,6.9,6.6,10.4,10c1.1,1.1,2.2,1.7,3.7,0.4
		C493,419.2,498.7,414.5,504.4,409.7z M532.2,422.5c0-96.9,0-193.9,0-291.1c-0.3,0-1.2-0.1-2.1-0.1c-4.5,0-9.1,0-13.6,0
		c-4.7,0-4.3-0.4-4.3,4.4c0,89.4,0,178.8,0,268.2c0,0.8-0.2,1.7,0.1,2.5c0.3,1,0.7,2.1,1.4,2.7c5.8,4.4,11.6,8.6,17.5,12.9
		C531.6,422.2,532.1,422.4,532.2,422.5z M442.3,422.8c1.1-0.7,1.8-1,2.5-1.5c4.6-3.5,9.1-7.2,13.8-10.6c2.6-1.9,3.4-4,3.4-7.1
		c-0.1-89.2-0.1-178.4-0.1-267.6c0-0.5-0.1-1,0-1.5c0.3-2.3-0.5-3.3-3-3.2c-4.5,0.2-9.1,0.2-13.6,0c-2.6-0.1-3.3,0.8-3.3,3.3
		c0.1,95.1,0,190.2,0.1,285.3C442.1,420.6,442.2,421.5,442.3,422.8z M443.5,429.4c-1.2,0.5-0.5,1.8,0,3.1
		c9.2,22.9,18.3,45.9,27.6,68.8c0.4,1,1.8,1.9,2.9,2.2c8.2,2.3,16.6,2,25,1.6c2.9-0.1,4.2-1.1,5.3-3.8c5.5-14,11.1-28,16.7-42
		c3.6-8.9,7.1-17.8,10.7-26.7c0.5-1.2,1.2-2.4-0.4-3.6c-6.6-4.8-13.2-9.6-19.7-14.5c-1.8-1.4-3.1-1.1-4.6,0.2
		c-6.1,5.2-12.3,10.4-18.5,15.6c-2.5,2.1-3.5,2.1-5.8-0.1c-5.4-5.1-10.9-10.3-16.3-15.5c-1.1-1-2-1.6-3.5-0.5
		C456.7,419.2,450.4,424.1,443.5,429.4z M442.3,88.4c0.7,0.1,1.4,0.2,2,0.2c28.9,0,57.7,0,86.6,0c1.7,0,2.4-0.5,2.4-2.3
		c-0.1-8.2,0.1-16.3-0.1-24.5c-0.3-12.8-9.8-22.7-22.7-23c-14.6-0.4-29.3-0.2-43.9-0.2c-14.9,0-24.1,11.1-24.5,22.8
		c-0.3,8.6-0.1,17.2-0.1,25.7C442,87.5,442.2,87.9,442.3,88.4z M442.1,124.4c30.5,0,60.7,0,91,0c0,0.2,0.1-0.2,0.1-0.5
		c0-9.2,0-18.3,0.1-27.5c0-1.9-1-1.9-2.4-1.9c-28.8,0-57.5,0-86.3,0c-2,0-2.6,0.7-2.6,2.6c0.1,7.9,0,15.8,0,23.7
		C442,122.2,442,123.6,442.1,124.4z"/>
</g>
<path class="st1" d="M365.9,521.7c0-147.8,0-295.6,0-443.4c0-1,0.2-2.1,0-3c-0.4-1.5-1.1-2.9-1.7-4.3c-0.3-0.1-0.5-0.3-0.8-0.4
	c-1.9-0.7-3.7-1.5-5.9-1.5c-40.7,0.1-81.3,0.1-122,0.1c-0.8,0-1.7-0.2-2.5,0c-1.3,0.3-2.7,0.7-3.9,1.4c-0.6,0.4-0.7,1.7-1.3,2.2
	c-1.9,1.6-1.2,3.7-1.2,5.5c0,147.8,0,295.6,0,443.4c0,0.7,0,1.3,0,2c0.1,2.5,1.8,4.5,3.8,6.1c1.6,1.3,3.1,0.9,4.6,0.9
	c40.7,0,81.3,0,122,0c0.8,0,1.7,0.2,2.5,0c1.3-0.3,2.7-0.7,3.9-1.4c0.6-0.4,0.7-1.7,1.3-2.2C366.6,525.6,365.9,523.6,365.9,521.7z
	 M329.1,441.9c1.4,2.7,3.3,4.4,6.4,4.2c4.9-0.3,9.9,0.8,14.7-0.6c0.2,0,0.7,0.4,0.7,0.6c0.1,1.5,0,3,0,4.5c0,8.5,0,17,0,25.5
	c0,1.1-0.1,1.4-1.2,0.7c-0.8-0.4-1.9-0.3-2.9-0.3c-11.2,0-22.3,0.1-33.5-0.1c-2.2-0.1-3.5,1.3-5.4,1.7c-1,0.2-1.8,2.1-2.2,3.4
	c-0.8,2.8,0.5,5.3,1.4,7.9c1.8,0.4,3.1,2.1,5.1,2.1c11.8,0,23.7,0,35.5,0c0.8,0,1.5-0.4,2.3-0.5c0.3,0,0.6,0.2,0.9,0.4
	c0.1,0.1,0,0.3,0,0.5c0,7.5,0,15,0,22.5c0,1.6-0.6,1.9-2,1.9c-16.3,0-32.7,0-49,0c-1.4,0-2.2-0.3-2-1.9c0.1-1.2,0-2.3,0-3.5
	c0-125.1,0-250.3-0.1-375.4c0-1.8,0.5-3.7-0.9-5.7c-2.4-3.4-6-4.8-9.8-3.1c-2.9,1.3-4,3.6-4.1,6.5c0,0.8,0,1.7,0,2.5
	c0,125,0,250,0,374.9c0,1.3,0,2.7,0,4c0,0.4-0.2,0.9-0.3,1.4c-0.6,0.1-1,0.2-1.5,0.2c-12.7,0-25.3,0-38,0c-1.5,0-2.1-0.5-1.9-2
	c0.1-1.2,0-2.3,0-3.5c0-140.3,0-280.6,0-420.9c0-1.8-0.4-4.2,0.6-5.1s3.4-0.5,5.2-0.5c32.8,0,65.7,0,98.5,0c1,0,2,0.1,3,0
	c1.6-0.1,2.4,0.2,2.4,2.1c-0.1,6.8-0.1,13.7,0,20.5c0,1.8-0.6,2.2-2.3,2.2c-9.8-0.1-19.7,0-29.5,0c-1.4,0-3-0.4-4,1.1
	c-2.7-0.3-2.8,2.4-3.5,3.7c-0.8,1.5-0.9,3.8,0.3,5.6c0.6,1,1.1,2.5,2,2.8c1.6,0.5,2.8,1.7,4.9,1.7c9.8-0.3,19.7-0.1,29.5-0.1
	c2.6,0,2.6,0,2.7,2.7c0,8.5,0,17,0,25.5c0,1.8-0.6,2.3-2.3,2.2c-2.3-0.1-4.7,0.3-7-0.1c-2.3-0.5-3.7,1.1-5.4,1.7
	c-1.1,0.4-1.9,2.4-2.3,3.8c-0.8,2.6,0.6,5,1.4,7.4c1.8,0.4,3.1,2.2,5.1,2.1c2.8-0.1,5.7,0,8.5,0c1.6-0.1,1.9,0.6,1.9,2
	c-0.1,8.8-0.1,17.7,0,26.5c0,1.6-0.6,1.9-2,1.9c-5.5-0.1-11,0-16.5,0c-4.5,0-9,0.3-13.5-0.1c-2.3-0.2-3.6,1.2-5.4,1.8
	c-1.1,0.4-1.7,2.8-2.2,4.4c-0.7,2.3,0.2,4.6,1.5,6.3c1.2,1.7,3.3,2.6,5.7,2.6c7-0.1,14,0,21,0c3.2,0,6.3,0.1,9.5,0
	c1.6,0,1.9,0.6,1.9,2c-0.1,8.8-0.1,17.7,0,26.5c0,1.6-0.6,2-2,1.9c-2.5-0.1-5,0-7.5,0c-2.9,0-4.9,1.3-6.2,3.6
	c-1.8,3.5-1.8,4.2-0.1,7.5c0.4,0.8,0.8,2.2,1.2,2.2c1.7,0,2.5,1.9,4.4,1.6c2.8-0.4,5.7-0.1,8.5-0.1c1.3,0,1.7,0.6,1.7,1.8
	c0,8.8-0.1,17.7,0,26.5c0,1.8-0.7,2.2-2.3,2.2c-9.8-0.1-19.7,0-29.5,0c-1.4,0-3-0.4-4,1.1c-2.7-0.3-2.8,2.4-3.5,3.8
	c-0.8,1.5-1.1,4.1,0.4,5.5c1,0.9-0.1,2.9,1.9,3.1c1.7,0.1,2.9,1.6,4.9,1.5c9.8-0.3,19.7-0.1,29.5-0.1c2.6,0,2.6,0,2.6,2.8
	c0,8.3,0,16.7,0,25c0,2.6,0,2.6-2.8,2.6c-2.2,0-4.4,0.4-6.5-0.1c-2.3-0.5-3.6,1.2-5.4,1.7c-1,0.2-1.8,2.1-2.2,3.3
	c-0.8,2.7,0.4,5.3,1.3,7.9c1.8,0.4,3.1,2.2,5.1,2.1c2.7-0.1,5.3,0,8,0c1.5-0.1,2.4,0.1,2.4,2.1c-0.1,8.8-0.1,17.7,0,26.5
	c0,1.6-0.7,1.9-2.1,1.9c-6.2-0.1-12.3,0-18.5,0c-3.8,0-7.7,0.4-11.5-0.1c-2.3-0.3-3.7,1.2-5.4,1.8c-1.1,0.4-1.7,2.8-2.2,4.4
	c-0.7,2.3,0.2,4.6,1.5,6.3c1.2,1.7,3.3,2.6,5.7,2.5c7.7-0.1,15.3,0,23,0c2.5,0,5,0.1,7.5,0c1.6-0.1,1.9,0.6,1.9,2.1
	c-0.1,5.3,0,10.7,0,16c0,5.7,0,11.3,0,17c0,0.8,0.6,3-1.4,1c-5.2,0-10.4-0.5-15.5,0.1C328.8,432,327.3,438.3,329.1,441.9z"/>
<g id="Eraser">
	<rect x="597.1" y="323.5" class="st1" width="136" height="206"/>
	<path class="st1" d="M647.1,324.3"/>
	<path class="st1" d="M647.1,324.3"/>
	<path class="st1" d="M647.1,324.3"/>
	<path class="st1" d="M597,323.5c0,0,0-65.8,68.3-65.8s68.3,65.8,68.3,65.8H597z"/>
	<polyline class="st1" points="650.1,325 650.1,341.4 650.1,531 	"/>
	<line class="st1" x1="597" y1="387.8" x2="650.4" y2="341.4"/>
	<line class="st1" x1="597" y1="370" x2="648.5" y2="325.3"/>
	<line class="st1" x1="597" y1="358.1" x2="635.3" y2="324.3"/>
	<line class="st1" x1="597" y1="343.2" x2="618.8" y2="325.3"/>
	<line class="st1" x1="597" y1="405.6" x2="650.4" y2="359.3"/>
	<line class="st1" x1="597" y1="420.5" x2="650.4" y2="374.1"/>
	<line class="st1" x1="597" y1="435.3" x2="650.4" y2="389"/>
	<line class="st1" x1="597" y1="453.1" x2="650.4" y2="406.8"/>
	<line class="st1" x1="597" y1="468" x2="650.4" y2="421.6"/>
	<line class="st1" x1="597" y1="488.8" x2="650.4" y2="442.4"/>
	<line class="st1" x1="597" y1="506.6" x2="650.4" y2="460.2"/>
	<line class="st1" x1="597" y1="521.4" x2="650.4" y2="475.1"/>
	<line class="st1" x1="604.8" y1="529.5" x2="650.4" y2="489.9"/>
	<line class="st1" x1="621.9" y1="529.5" x2="650.4" y2="504.8"/>
</g>
</svg>
