<?xml version="1.0" encoding="utf-8"?>
<!-- Generator: Adobe Illustrator 19.1.0, SVG Export Plug-In . SVG Version: 6.00 Build 0)  -->
<svg version="1.1" id="Layer_1" xmlns="http://www.w3.org/2000/svg" xmlns:xlink="http://www.w3.org/1999/xlink" x="0px" y="0px"
	 viewBox="0 0 960 560" style="enable-background:new 0 0 960 560;" xml:space="preserve">
<style type="text/css">
	.st0{fill:#FFF8B5;stroke:#FFF8B5;stroke-width:5;stroke-miterlimit:10;}
	.st1{display:none;fill:#807C5B;}
</style>
<g>
	<path class="st0" d="M388.3,283.7c0.4-6,0.6-12.4,1.3-18.8c0.9-7.9,6-12.1,14-12.1c14.9,0,26.4-6.4,34.4-18.8
		c9.4-14.6,6.3-35.3-6.7-47.4c-6.3-5.9-6.8-12.4-1.4-19.2c8.3-10.5,17.8-19.8,28.2-28.3c6.2-5.1,13-4.6,18.7,1.2
		c7.5,7.7,16.7,11.8,27.3,11.8c16,0,27.3-7.9,34.6-21.9c2.6-5,4-10.4,4.1-16.1c0-10.6,4.4-15.1,15-16c12.4-1,24.8-1,37.2,0.1
		c8.7,0.7,13.5,6,13.2,14.7c-0.7,19.2,13.9,36.4,33.1,38.9c13.1,1.7,24.3-2.4,33.5-11.9c5.8-5.9,12.4-6.5,18.9-1.3
		c10.4,8.3,19.7,17.6,28.1,27.9c5,6.1,4.6,14-0.9,19.7c-7.8,8-11.8,17.6-11.7,28.8c0.2,18.3,15.5,35,33.7,36.7
		c2.4,0.2,4.8,0.4,7.1,0.4c6.6,0.2,11.9,4.6,12.7,11.2c1.6,14.3,1.8,28.6,0,42.9c-0.8,6.5-6.5,10.7-13.5,10.8
		c-16.5,0.2-29,7.5-36.6,22.2c-7.3,14.3-3.4,32.8,8.7,44.3c6.1,5.7,6.6,12.8,1.2,19.1c-2.1,2.4-4.5,4.5-6.6,6.9
		c-4.1,4.4-8,9-12.3,13.2c-3,3-6.3,5.6-9.6,8.3c-6.1,4.9-13.1,4.3-18.5-1.3c-6.5-6.8-14.5-10.8-23.8-11.6
		c-15.2-1.3-27.2,4.5-35.7,17.4c-4.3,6.6-6.6,13.9-6.5,21.8c0.1,8.5-4.8,13.5-13.4,14.3c-13.3,1.3-26.6,1.4-39.9,0
		c-7.2-0.8-12.4-6.1-12.2-13.4c0.2-8.8-1.9-16.7-6.8-23.9c-10.3-15.1-30-20.7-46.6-12.8c-4.8,2.3-9.3,5.6-13.3,9.1
		c-6.6,5.8-12.6,6-20.3-0.5c-9.4-7.9-17.8-16.7-25.9-25.9c-6.5-7.4-4.3-15.9,1-21.2c5.7-5.6,9-12.4,10.5-20.2
		c3.8-20.2-10.2-40.6-30.5-44.3c-2.3-0.4-4.7-0.6-7.1-0.6c-10-0.1-14.9-4.4-15.7-14.4C388.9,297,388.7,290.6,388.3,283.7z M759,285
		c-0.5-6.6-0.8-13.4-1.5-20.2c-0.5-5.1-3.5-7.6-8.7-7.6c-0.6,0-1.3,0-1.9,0c-17.4-0.8-30.6-8.7-38.3-24.3
		c-7.6-15.3-5.9-30.3,3.6-44.4c1.4-2,3.1-3.8,4.8-5.7c3.4-3.8,4.3-8.5,1.9-11.6c-8.7-11.1-18.5-21-29.6-29.5c-3-2.3-6.5-2-9.4,0.4
		c-0.9,0.8-1.7,1.7-2.5,2.5c-16.4,16.3-43,16.9-60,1.3c-9.8-9-14.3-20.3-14.2-33.5c0.1-5.7-2.2-8.4-7.8-9c-12.9-1.5-25.7-1.4-38.6,0
		c-6.6,0.8-8.5,3.1-8.8,9.9c-0.6,17.1-8.3,30.2-23.1,38.7c-16.5,9.4-37.7,5.9-51.1-7.6c-4.7-4.8-7.9-5-13.2-0.7
		c-9.1,7.4-17.4,15.6-24.9,24.6c-6,7.2-5.8,9.3,0.7,16c0.3,0.3,0.5,0.5,0.8,0.8c12.6,13.5,15.3,35,5.6,50.7
		c-8.8,14.4-22,21.8-39,22.1c-6,0.1-8.5,2.1-9.2,7.9c-1.4,12.7-1.4,25.3,0.1,38c0.7,6.5,3.3,8.9,9.9,8.8
		c23.7-0.4,43.9,19.5,43.8,43.3c-0.1,11.8-4.1,22.1-12.5,30.6c-4.6,4.6-4.7,9.4-0.6,14.4c7.9,9.5,16.6,18.2,26.2,26
		c4.7,3.8,7.9,3.6,12.4-0.5c2.8-2.5,5.7-5,8.9-6.9c19.1-11.7,41.2-8.5,56,8.2c7.4,8.4,10.6,18.5,10.5,29.7c-0.1,5.1,2.2,8.2,6.8,8.8
		c13.9,1.6,27.7,1.6,41.6-0.3c4.1-0.5,6.4-3.5,6.6-7.6c0.1-2.5,0-5,0.4-7.4c3.2-17.7,12.5-30.7,30-36.3c16.8-5.4,31.8-1.1,44.4,11.2
		c4.1,4,7.7,4.2,12.2,0.6c9.7-7.8,18.5-16.6,26.4-26.2c4.6-5.7,4.5-8.7-0.7-13.8c-15-14.6-17.7-38.5-5.8-55.1
		c9.2-12.9,21.9-19.5,37.9-19.6c5.1,0,8.3-2.6,8.7-7.3C758.2,298.1,758.5,291.7,759,285z"/>
	<path class="st0" d="M234.6,303.8c-0.8-3.2-1.3-6.7-2.5-9.9c-2.3-6.4-0.7-11.5,5.5-14.1c8.7-3.6,17.5-7,26.5-10
		c6.2-2.1,10.6,0.5,13.1,6.6c4.4,10.7,12.3,17.1,24,17.7c11.5,0.6,21.6-6.1,26.5-16.8c2.5-5.5,7.3-7.7,13.1-5.8
		c9.4,2.9,18.4,6.9,26.9,11.9c5.5,3.2,7,8.1,4.4,13.9c-7.7,17.6,1.5,35.2,20.4,38.6c4.8,0.9,9.5,0.1,14.1-1.7
		c6.6-2.6,11.7-0.9,14.5,5.6c3.6,8.4,6.9,17,9.8,25.6c2.2,6.6-0.6,11.7-7.1,14.3c-7.6,3.1-12.9,8.4-15.7,16
		c-4.8,12.9,1.4,28.2,14.1,33.5c7.3,3.1,9.3,9.2,6.5,15.3c-3.6,8.2-7.1,16.5-11.1,24.5c-3.1,6.3-7.8,7.5-14.3,4.7
		c-9.2-4-18.2-3.3-26.6,1.9c-10.5,6.4-15,20.4-10.1,32.2c2.8,6.7,0.1,13-6.4,15.4c-8.4,3.1-16.7,6.5-25.2,9.4
		c-6.3,2.1-10.9-0.4-13.4-6.6c-4.7-11.8-14.4-18.5-27-17.6c-10.6,0.7-18.4,6.4-23,16.1c-3.1,6.4-7.6,8.9-14.3,6.2
		c-8.8-3.5-17.4-7.4-25.9-11.5c-5.9-2.9-7.3-8.2-4.5-14.2c7.4-16.1-1.2-33.8-18.4-37.8c-5.4-1.2-10.8-0.6-16,1.1
		c-7.5,2.5-11.7,0.9-14.9-6.3c-3.4-8-6.5-16.1-9.4-24.4c-2.4-7,0.3-12.2,7.2-15c7.3-3,12.4-8.1,15.2-15.4
		c5.2-13.6-0.9-28.3-14.2-34.3c-3.5-1.6-6.4-3.8-7.1-7.8c-0.3-2-0.2-4.3,0.6-6.2c3.7-8.8,7.4-17.6,11.6-26.1c2.8-5.7,8-7.1,13.7-4.5
		c15.2,6.7,32.1,0,37.4-15C233.6,310.5,233.9,307.3,234.6,303.8z M396.5,341.9c-23.7-0.6-39.1-24.5-29.4-46c2-4.6,1.6-6.5-3-8.7
		c-7.9-3.7-15.9-7.2-23.9-10.5c-4.3-1.8-6-0.7-8,3.5c-5.4,11-14.2,17.5-26.3,19c-14.5,1.7-27.7-6.8-33.3-20.7
		c-1.5-3.8-3.4-5-7.3-3.6c-8.6,3.1-17.2,6.4-25.7,9.9c-3.4,1.4-3.7,3.6-2.7,7c1.1,3.9,2.4,7.8,2.5,11.8c0.5,24-23.6,39.8-45.7,30
		c-4-1.8-6.1-1.3-7.9,2.5c-3.8,8-7.4,16.2-10.8,24.4c-1.7,4.1-0.7,6,3.4,7.8c17.3,7.9,24.3,28.2,15.3,44.9
		c-3.6,6.7-9,11.6-16.1,14.4c-4.7,1.9-6,4.2-4.4,9c2.8,7.9,5.7,15.7,9,23.4c2.1,4.9,3.5,5.2,8.6,3.6c13.5-4.2,26-2.3,35.6,8.5
		c9.4,10.5,10.7,22.6,5,35.5c-1.5,3.4-1,5.7,2.7,7.5c8,3.8,16.2,7.5,24.4,10.8c4.7,1.9,6.2,0.9,8.4-3.7c5.1-11.3,18.3-19.5,30.4-19
		c13.1,0.6,24.7,9,29.1,21.1c1.4,3.7,3.3,4.9,7,3.6c8.1-2.9,16.3-5.8,24.2-9.1c5.6-2.3,5.9-3.8,3.7-9.4c-5.3-13.9,0-30.2,12.7-38
		c9.9-6.1,20.4-6.7,31.2-2.2c3.6,1.5,5.7,1.2,7.4-1.6c5-8.4,8.9-17.3,11.8-26.7c0.8-2.7-0.1-4.6-2.7-5.9c-1.1-0.6-2.2-1-3.2-1.5
		c-12.4-6.3-19.5-21-16.6-34.6c2.4-11.5,9.3-19.3,20-24c4.1-1.8,5.4-4.1,3.9-8.3c-3-8.4-6.2-16.7-9.6-24.9c-1.4-3.5-3.7-4-7.5-2.8
		C404.7,340.1,400.6,340.9,396.5,341.9z"/>
	<path class="st0" d="M255.5,218.6c-2.7,0.6-5.4,1-8,1.8c-4.9,1.4-8.6,0.4-10.5-4.2c-3-7-5.7-14.1-8.1-21.3
		c-1.4-4.1,1.4-8.2,6.5-10.4c5.9-2.5,9.7-6.8,11.5-12.9c2.6-9.3-2-19-10.9-23.2c-5.6-2.6-7.3-6-5.1-11.7c2.5-6.5,5.4-12.8,8.4-19.1
		c2.3-4.7,6.6-5.9,11.4-3.8c8,3.4,15.6,2.4,22.1-3.3c6.2-5.4,7.7-13.9,4.6-22.3c-1.8-4.6-0.4-9,4.1-10.9c6.6-2.9,13.4-5.5,20.2-7.8
		c5.1-1.7,8.9,0.5,10.9,5.5c2.9,7.1,8.1,11.3,15.7,12.7c8.4,1.5,17.7-4.5,20.4-11c2.5-6.1,7.7-7.6,12.9-5.3c5.9,2.6,12,5.1,17.8,8
		c5.5,2.7,6.6,6.4,4.2,12.1c-4.7,11.3,0,22.7,11.2,26.8c4.4,1.6,9,1.6,13.5-0.1c6-2.4,9.8-1,12.5,5c2.5,5.8,4.9,11.7,6.9,17.7
		c2.1,6.4,0.2,10.1-5.9,12.8c-3.6,1.6-6.5,4-8.8,7.3c-6.5,9.5-3.1,22.9,7.1,28.2c1.2,0.6,2.5,1.1,3.7,1.9c3,2.1,4.4,5.7,3,9.2
		c-2.7,6.7-5.6,13.3-8.6,19.9c-2.4,5.2-7.6,6.1-12,4.1c-14.4-6.2-28.9,4.1-27.9,19.6c0.1,2.1,0.9,4.3,1.6,6.4
		c1.5,4.5,0.3,8.5-4,10.4c-6.8,3-13.7,5.7-20.7,8.1c-4.9,1.6-8.6-0.6-10.7-5.7c-2.8-6.8-7.7-11.1-15-12.4
		c-8.3-1.6-17.4,3.1-21.1,10.7c-3.1,6.5-6.3,8-13,5.4c-6.1-2.4-12.2-5.1-18.1-8.1c-5.2-2.7-6.3-6.6-3.9-12
		C279.4,232.9,270.3,218.8,255.5,218.6z M324.3,244.9c11.9-0.1,20.9,6,24.9,15.9c1,2.3,2.3,3.6,4.8,2.7c6.3-2.3,12.5-4.7,18.8-7.2
		c2.4-0.9,3-2.6,2.1-5.1c-3.9-10.2-1.8-20.7,6-27.6c8.1-7.1,17.5-8.4,27.5-4.2c2.3,1,3.9,0.6,5-1.7c2.6-5.8,5.4-11.5,7.8-17.3
		c1.6-3.9,1.2-4.5-2.6-6.4c-10.4-4.9-16.1-16.6-13.5-27.8c1.9-8.4,7.1-14.2,14.9-17.6c3.1-1.4,4-2.9,2.8-6c-2-5.6-4.1-11.2-6.4-16.7
		c-1.8-4.3-2.3-4.2-6.8-2.8c-10.2,3.2-19.3,1.2-26.5-6.6s-8.5-17.1-4.5-26.9c1.3-3.2,1.2-4.3-1.9-5.8C371,81,365,78.5,359,75.9
		c-2.5-1.1-4-0.3-5.3,2.2c-4.8,9.7-12.7,15.1-23.6,14.8c-10.6-0.3-18.1-6-22.3-15.7c-1.3-3.1-2.2-3.7-5.3-2.6
		c-6.1,2.2-12.2,4.6-18.3,7c-2.4,0.9-3,2.6-2.1,5.1c3.8,10.3,2.2,19.8-5.9,27.4c-8,7.5-17.6,8.6-27.7,4.5c-2.3-0.9-4-0.6-5,1.6
		c-2.7,5.9-5.5,11.8-7.9,17.9c-1.4,3.4-0.8,4.1,2.5,5.7c11.1,5.3,16.8,17.5,13.5,29.3c-2.2,7.7-7.1,13.1-14.5,16.3
		c-3.4,1.4-4.1,2.7-2.9,6.2c2,5.5,4,11.1,6.3,16.5c1.9,4.4,2.2,4.3,6.7,3c10.3-3,19.7-1.4,27,6.9c7,7.9,8.1,17.1,4,26.8
		c-1.1,2.5-0.7,4.3,1.8,5.4c5.8,2.6,11.5,5.3,17.4,7.7c3.8,1.6,4.4,1.1,6.2-2.5C308.3,250.2,316,245.6,324.3,244.9z"/>
	<path class="st0" d="M514.7,43.7c1.5-0.4,3-0.7,4.5-1.2c3.3-1.1,6.3-0.3,7.7,2.8c2.1,4.5,3.9,9.1,5.3,13.8c1,3.3-0.9,5.9-4.9,7.9
		c-7.4,3.5-9.1,12.6-3.5,18.4c0.9,1,2.2,1.7,3.4,2.4c4.2,2.2,5.4,4.7,3.6,9.2c-1.5,3.8-3.2,7.6-5.1,11.3c-2,3.9-4.6,4.7-8.7,3.1
		c-6.3-2.5-12.7-0.1-15.3,5.7c-1.3,2.8-1.3,5.7-0.3,8.6c1.6,4.7,0.6,7.4-3.9,9.4c-3.8,1.7-7.6,3.1-11.6,4.4
		c-3.9,1.2-6.5-0.1-8.2-3.8c-1.2-2.8-2.9-5-5.8-6.4c-5.8-2.7-12.2-0.6-15.3,5.1c-2.7,4.9-4.7,5.7-10.1,3.7
		c-3.4-1.3-6.8-2.8-10.1-4.4c-4.3-2.2-5.4-5-3.6-9.5s1.3-8.7-2-12.3c-3.2-3.5-7.5-4.8-11.8-3.1c-5.4,2.1-8.7-0.1-10.5-5.1
		c-1.2-3.2-2.5-6.3-3.5-9.5c-1.5-4.8-0.3-7.3,4.3-9.5c7.3-3.5,9.3-12,4.2-17.9c-1.2-1.3-2.8-2.4-4.4-3.2c-3.4-1.9-4.8-4.5-3.4-8.2
		c1.5-4,3.2-8,5.1-11.8c2.1-4.1,4.8-4.9,9.2-3.2c4.6,1.8,8.9,1.2,12.5-2.1c3.6-3.4,4.4-7.6,2.8-12.4c-1.5-4.5-0.5-7.2,3.8-9.1
		c3.8-1.7,7.8-3.2,11.8-4.4c3.7-1.2,6.4,0.1,8,3.8c2.1,4.7,5.4,7.6,10.7,7.6c5.1,0,8.5-2.7,10.8-7.2c1.8-3.6,4.7-4.8,8.5-3.3
		c4.2,1.7,8.3,3.5,12.2,5.6c3.5,1.9,4.2,4.7,2.7,8.4C500.6,35.4,505.7,43.3,514.7,43.7z M415.9,44.2c-1.8,4.4-3.7,8.6-5.3,12.8
		c-0.2,0.4,0.6,1.6,1.2,1.9c6.2,3.3,9.6,8.3,9.5,15.3c-0.1,7.1-3.6,12.2-10.1,15.1c-1.5,0.7-1.9,1.6-1.4,3c1.3,3.5,2.6,7.1,4.2,10.5
		c0.3,0.6,1.7,1,2.5,1c3.1-0.1,6.3-1,9.2-0.5c10.2,1.9,15.7,12.2,12.1,22c-0.5,1.3-1.4,2.5,0.6,3.4c4,1.8,8,3.6,11.9,5.4
		c0.5-0.6,0.8-0.7,0.9-1c3.2-6.5,8.3-10.4,15.6-10.4c7.4,0,12.4,3.8,15.5,10.5c0.3,0.6,1.7,1.1,2.3,0.9c3.3-1.1,6.5-2.5,9.8-3.5
		c2.2-0.7,2.5-1.7,1.7-3.9c-3.2-9.5,2.5-19.4,12.4-21.1c3.7-0.6,7.7,0.2,12.6,0.4c1.4-3.2,3.2-7.4,4.8-11.6c0.2-0.4-0.6-1.6-1.3-1.9
		c-6.2-3.4-9.7-8.5-9.5-15.6c0.2-7,3.9-11.9,10.2-14.8c1.5-0.7,1.9-1.5,1.3-3c-1.3-3.3-2.6-6.7-3.8-10c-0.6-1.7-1.5-1.9-3.2-1.4
		c-6.7,2.2-12.9,0.9-17.7-4.3c-4.8-5.1-5.9-11.3-3.1-17.9c0.5-1.3,0.5-2.1-0.8-2.7c-3.5-1.6-7-3.2-10.6-4.7
		c-1.3-0.5-2.1-0.2-2.8,1.2c-3.2,6.1-8.4,9.6-15.3,9.5c-7-0.1-12.1-3.9-15-10.3c-0.6-1.4-1.4-1.8-2.8-1.3c-2.8,1-5.6,1.9-8.3,3.1
		c-3.7,1.6-3.7,1.6-2.7,5.6c2.3,8.9-3,17.7-12,19.9C424.5,46.8,420.4,46.1,415.9,44.2z"/>
	<path class="st0" d="M681.3,284.9c0.4,57.6-46.6,104.6-105,105c-57.6,0.5-105.2-46.6-105.1-104.9c0.1-57.8,45.3-104.6,104.3-105.2
		C633.9,179.3,680.9,226.2,681.3,284.9z M476.3,280.2c-0.2,60.8,46.4,106.8,104,104.5c53.3-2.1,97.5-46.6,95.7-103.2
		c-0.9-27.8-11.8-51.3-32.2-70.2c-24.9-23-54.7-29.4-87.6-25.2c-20.3,5.6-38.6,14.8-53,30.6C485.6,236.1,476.1,258.5,476.3,280.2z"
		/>
	<path class="st0" d="M299.5,463.5c-34,0.3-62.8-28.5-62.4-63.1c0.4-33.9,28.3-61.5,62.8-61.4c34.1,0.1,61.9,28.4,61.7,62.7
		C361.4,435.8,333.4,463.6,299.5,463.5z M299.5,344.4c-31-0.2-56.8,24.7-57.1,56.2c-0.3,32.2,25,57.7,57.3,57.7
		c30.1-0.1,56.9-23.8,56.8-57.5C356.2,368.8,331.3,344.7,299.5,344.4z"/>
	<path class="st0" d="M328.5,216.4c-26.7-0.1-47.6-21.4-47.4-48.2c0.2-25.7,21.8-46.8,47.7-46.6c26.4,0.2,47.4,21.5,47.2,47.9
		C375.8,195.3,354.4,216.5,328.5,216.4z M328.6,126.8c-23.3,0-42.2,18.6-42.2,41.9c-0.1,23.5,18.7,42.6,41.8,42.6
		c23.5,0.1,42.5-18.8,42.6-42.2C370.8,145.7,351.9,126.8,328.6,126.8z"/>
	<path class="st0" d="M468.5,44.9c17,0,30.8,13.9,30.8,31c0,16.9-14,30.9-30.7,30.8c-17.1-0.1-31.1-13.9-31.1-30.8
		C437.5,58.6,451.2,44.9,468.5,44.9z M442.8,75.8c0,14.3,11.2,25.6,25.4,25.6c14.4,0,25.9-11.3,25.9-25.5
		c0.1-14.1-11.6-25.8-25.7-25.8C454.1,50,442.7,61.4,442.8,75.8z"/>
	<path class="st1" d="M759,285c-0.4,6.6-0.8,13.1-1.3,19.5c-0.4,4.8-3.6,7.3-8.7,7.3c-16,0.1-28.7,6.6-37.9,19.6
		c-11.8,16.6-9.1,40.5,5.8,55.1c5.2,5.1,5.4,8.1,0.7,13.8c-7.9,9.6-16.6,18.4-26.4,26.2c-4.4,3.6-8,3.4-12.2-0.6
		c-12.7-12.3-27.6-16.5-44.4-11.2c-17.4,5.6-26.8,18.6-30,36.3c-0.4,2.4-0.4,4.9-0.4,7.4c-0.2,4.1-2.5,7.1-6.6,7.6
		c-13.8,1.9-27.7,1.8-41.6,0.3c-4.6-0.5-6.9-3.7-6.8-8.8c0.2-11.2-3-21.3-10.5-29.7c-14.7-16.7-36.9-19.9-56-8.2
		c-3.2,1.9-6.1,4.4-8.9,6.9c-4.5,4-7.7,4.3-12.4,0.5c-9.6-7.8-18.3-16.5-26.2-26c-4.1-5-4-9.7,0.6-14.4c8.4-8.5,12.4-18.8,12.5-30.6
		c0.1-23.8-20.1-43.8-43.8-43.3c-6.6,0.1-9.2-2.2-9.9-8.8c-1.4-12.7-1.5-25.4-0.1-38c0.7-5.8,3.2-7.8,9.2-7.9
		c17-0.3,30.2-7.7,39-22.1c9.6-15.8,7-37.2-5.6-50.7c-0.3-0.3-0.5-0.5-0.8-0.8c-6.6-6.8-6.7-8.8-0.7-16c7.5-9,15.8-17.2,24.9-24.6
		c5.2-4.2,8.5-4,13.2,0.7c13.4,13.5,34.7,17,51.1,7.6c14.8-8.4,22.5-21.6,23.1-38.7c0.2-6.8,2.1-9.2,8.8-9.9
		c12.9-1.5,25.7-1.5,38.6,0c5.6,0.6,7.8,3.3,7.8,9c-0.1,13.2,4.4,24.5,14.2,33.5c17,15.6,43.7,15,60-1.3c0.8-0.8,1.6-1.8,2.5-2.5
		c2.9-2.4,6.5-2.7,9.4-0.4c11.1,8.6,21,18.5,29.6,29.5c2.4,3.1,1.4,7.8-1.9,11.6c-1.6,1.9-3.4,3.7-4.8,5.7
		c-9.5,14.1-11.2,29.2-3.6,44.4c7.8,15.5,21,23.4,38.3,24.3c0.6,0,1.3,0,1.9,0c5.2,0,8.2,2.5,8.7,7.6
		C758.2,271.6,758.5,278.4,759,285z M681.3,284.9c-0.4-58.8-47.4-105.7-105.8-105.1c-59,0.6-104.2,47.3-104.3,105.2
		c-0.1,58.3,47.5,105.4,105.1,104.9C634.7,389.5,681.7,342.5,681.3,284.9z"/>
	<path class="st1" d="M396.5,341.9c4.1-1,8.2-1.8,12.2-3c3.8-1.2,6-0.8,7.5,2.8c3.4,8.2,6.6,16.5,9.6,24.9c1.5,4.2,0.2,6.5-3.9,8.3
		c-10.7,4.6-17.6,12.5-20,24c-2.9,13.6,4.3,28.3,16.6,34.6c1.1,0.5,2.2,1,3.2,1.5c2.5,1.3,3.5,3.2,2.7,5.9
		c-2.9,9.4-6.8,18.3-11.8,26.7c-1.7,2.8-3.8,3.1-7.4,1.6c-10.8-4.5-21.3-3.9-31.2,2.2c-12.6,7.8-18,24.1-12.7,38
		c2.2,5.7,1.8,7.1-3.7,9.4c-8,3.3-16.1,6.3-24.2,9.1c-3.7,1.3-5.7,0-7-3.6c-4.4-12.1-16.1-20.5-29.1-21.1
		c-12.1-0.5-25.3,7.7-30.4,19c-2.1,4.6-3.7,5.6-8.4,3.7c-8.2-3.4-16.4-7-24.4-10.8c-3.7-1.7-4.2-4-2.7-7.5c5.7-12.9,4.4-25-5-35.5
		c-9.7-10.8-22.1-12.7-35.6-8.5c-5.1,1.6-6.6,1.3-8.6-3.6c-3.2-7.7-6.2-15.5-9-23.4c-1.7-4.8-0.3-7.1,4.4-9
		c7.1-2.8,12.5-7.7,16.1-14.4c9-16.7,2-37-15.3-44.9c-4.1-1.9-5.2-3.7-3.4-7.8c3.4-8.2,7-16.4,10.8-24.4c1.8-3.9,3.9-4.3,7.9-2.5
		c22.1,9.8,46.3-5.9,45.7-30c-0.1-3.9-1.4-7.9-2.5-11.8c-1-3.5-0.6-5.6,2.7-7c8.5-3.5,17-6.8,25.7-9.9c3.9-1.4,5.7-0.2,7.3,3.6
		c5.5,14,18.8,22.5,33.3,20.7c12.1-1.4,21-8,26.3-19c2-4.2,3.8-5.3,8-3.5c8.1,3.3,16.1,6.8,23.9,10.5c4.6,2.1,5,4.1,3,8.7
		C357.4,317.4,372.8,341.3,396.5,341.9z M299.5,463.5c33.9,0.1,61.9-27.7,62.1-61.7c0.2-34.3-27.6-62.6-61.7-62.7
		c-34.5-0.1-62.4,27.5-62.8,61.4C236.7,435,265.5,463.8,299.5,463.5z"/>
	<path class="st1" d="M324.3,244.9c-8.3,0.7-16,5.2-20.7,14.4c-1.8,3.6-2.5,4-6.2,2.5c-5.8-2.4-11.6-5.1-17.4-7.7
		c-2.5-1.1-2.8-2.9-1.8-5.4c4.1-9.7,3-18.9-4-26.8c-7.3-8.2-16.6-9.9-27-6.9c-4.4,1.3-4.8,1.4-6.7-3c-2.3-5.4-4.3-10.9-6.3-16.5
		c-1.2-3.5-0.5-4.8,2.9-6.2c7.4-3.1,12.3-8.6,14.5-16.3c3.3-11.8-2.4-23.9-13.5-29.3c-3.3-1.6-3.9-2.4-2.5-5.7
		c2.5-6,5.2-12,7.9-17.9c1-2.2,2.7-2.5,5-1.6c10.1,4.1,19.7,3,27.7-4.5c8-7.6,9.7-17,5.9-27.4c-0.9-2.5-0.3-4.1,2.1-5.1
		c6.1-2.4,12.1-4.8,18.3-7c3.1-1.1,3.9-0.5,5.3,2.6c4.3,9.8,11.7,15.5,22.3,15.7c10.9,0.3,18.7-5.2,23.6-14.8
		c1.2-2.5,2.8-3.3,5.3-2.2c6,2.6,12,5.1,17.9,7.9c3,1.4,3.2,2.6,1.9,5.8c-4.1,9.9-2.8,19.1,4.5,26.9c7.2,7.8,16.3,9.8,26.5,6.6
		c4.5-1.4,4.9-1.5,6.8,2.8c2.3,5.5,4.4,11.1,6.4,16.7c1.1,3.2,0.3,4.7-2.8,6c-7.9,3.4-13,9.2-14.9,17.6
		c-2.6,11.2,3.1,22.9,13.5,27.8c3.8,1.8,4.2,2.4,2.6,6.4c-2.4,5.9-5.1,11.6-7.8,17.3c-1,2.3-2.6,2.7-5,1.7
		c-10-4.2-19.4-2.9-27.5,4.2c-7.8,6.8-9.9,17.4-6,27.6c1,2.5,0.3,4.2-2.1,5.1c-6.2,2.4-12.5,4.9-18.8,7.2c-2.5,0.9-3.8-0.4-4.8-2.7
		C345.1,250.9,336.2,244.9,324.3,244.9z M328.5,216.4c25.8,0.1,47.3-21,47.4-46.8c0.2-26.4-20.8-47.7-47.2-47.9
		c-25.9-0.2-47.5,20.9-47.7,46.6C280.9,195,301.9,216.2,328.5,216.4z"/>
	<path class="st1" d="M415.9,44.2c4.5,1.9,8.6,2.6,12.9,1.5c9-2.3,14.3-11,12-19.9c-1-3.9-1-4,2.7-5.6c2.7-1.1,5.5-2,8.3-3.1
		c1.4-0.5,2.1-0.2,2.8,1.3c2.9,6.5,8,10.2,15,10.3c6.9,0.1,12.1-3.4,15.3-9.5c0.7-1.4,1.6-1.8,2.8-1.2c3.5,1.5,7,3.1,10.6,4.7
		c1.3,0.6,1.4,1.4,0.8,2.7c-2.8,6.6-1.7,12.8,3.1,17.9c4.8,5.2,11,6.5,17.7,4.3c1.7-0.5,2.5-0.3,3.2,1.4c1.2,3.4,2.5,6.7,3.8,10
		c0.6,1.5,0.2,2.3-1.3,3c-6.3,2.9-10,7.9-10.2,14.8c-0.2,7.1,3.3,12.2,9.5,15.6c0.6,0.3,1.4,1.5,1.3,1.9c-1.6,4.2-3.5,8.4-4.8,11.6
		c-4.9-0.2-8.9-1-12.6-0.4c-9.9,1.7-15.6,11.5-12.4,21.1c0.7,2.2,0.4,3.2-1.7,3.9c-3.3,1.1-6.5,2.5-9.8,3.5c-0.6,0.2-2-0.4-2.3-0.9
		c-3.1-6.7-8.1-10.5-15.5-10.5s-12.4,3.9-15.6,10.4c-0.1,0.2-0.4,0.4-0.9,1c-3.9-1.8-7.9-3.6-11.9-5.4c-2-0.9-1.1-2.1-0.6-3.4
		c3.6-9.7-1.9-20.1-12.1-22c-3-0.5-6.1,0.4-9.2,0.5c-0.9,0-2.3-0.4-2.5-1c-1.5-3.4-2.8-7-4.2-10.5c-0.5-1.4-0.1-2.4,1.4-3
		c6.5-2.9,10-8,10.1-15.1c0.1-7-3.3-12-9.5-15.3c-0.6-0.3-1.4-1.5-1.2-1.9C412.2,52.8,414.1,48.6,415.9,44.2z M468.5,44.9
		c-17.3,0-31,13.7-31,31c0,16.9,13.9,30.7,31.1,30.8c16.7,0.1,30.7-13.9,30.7-30.8C499.3,58.7,485.5,44.9,468.5,44.9z"/>
	<path class="st1" d="M476.3,280.2c-0.2-21.7,9.3-44.1,26.8-63.4c14.4-15.8,32.7-25,53-30.6c32.8-4.2,62.7,2.2,87.6,25.2
		c20.4,18.9,31.3,42.4,32.2,70.2c1.9,56.6-42.3,101.1-95.7,103.2C522.8,387,476.1,341,476.3,280.2z"/>
	<path class="st1" d="M299.5,344.4c31.8,0.3,56.8,24.4,56.9,56.5c0.2,33.6-26.6,57.4-56.8,57.5c-32.3,0.1-57.5-25.4-57.3-57.7
		C242.7,369,268.4,344.1,299.5,344.4z"/>
	<path class="st1" d="M328.6,126.8c23.3,0,42.2,18.9,42.2,42.3s-19.1,42.3-42.6,42.2c-23.2,0-41.9-19.1-41.8-42.6
		C286.4,145.4,305.3,126.8,328.6,126.8z"/>
	<path class="st1" d="M442.8,75.8c0-14.3,11.4-25.8,25.6-25.8s25.8,11.7,25.7,25.8c-0.1,14.2-11.5,25.5-25.9,25.5
		C454,101.4,442.8,90.1,442.8,75.8z"/>
</g>
</svg>
