<svg id="Layer_1" data-name="Layer 1" xmlns="http://www.w3.org/2000/svg" xmlns:xlink="http://www.w3.org/1999/xlink" viewBox="0 0 589.83 361.24"><defs><style>.cls-1{fill:#fff;}.cls-2{clip-path:url(#clip-path);}.cls-3{clip-path:url(#clip-path-2);}.cls-4{clip-path:url(#clip-path-3);}</style><clipPath id="clip-path" transform="translate(0 0)"><path class="cls-1" d="M214.3,83.45l-56.17,32.42a6.78,6.78,0,0,0-3.39,5.87v64.89a6.78,6.78,0,0,0,3.39,5.87L214.3,225a6.8,6.8,0,0,0,6.79,0l56.17-32.45a6.79,6.79,0,0,0,3.39-5.87V121.75a6.78,6.78,0,0,0-3.4-5.87L221.08,83.45a6.83,6.83,0,0,0-6.8,0"/></clipPath><clipPath id="clip-path-2" transform="translate(0 0)"><path class="cls-1" d="M156.12,190.76a6.8,6.8,0,0,0,2,1.75l48.19,27.83,8,4.61a6.81,6.81,0,0,0,3.91.89,6.94,6.94,0,0,0,1.33-.24l59.25-108.48a6.72,6.72,0,0,0-1.58-1.25L240.47,94.63,221,83.44a7.09,7.09,0,0,0-1.76-.71Z"/></clipPath><clipPath id="clip-path-3" transform="translate(0 0)"><path class="cls-1" d="M217,82.58a6.85,6.85,0,0,0-2.71.87l-56,32.33,60.4,110a6.74,6.74,0,0,0,2.41-.83l56.17-32.45a6.81,6.81,0,0,0,3.28-4.63L219,82.69a7.05,7.05,0,0,0-1.37-.14l-0.56,0"/></clipPath></defs><title>nodejs</title><path class="cls-1" d="M291.53,361.24a11.21,11.21,0,0,1-5.59-1.49l-17.78-10.53c-2.66-1.49-1.36-2-.48-2.31a35.9,35.9,0,0,0,8-3.67,1.35,1.35,0,0,1,1.32.09l13.66,8.11a1.8,1.8,0,0,0,1.65,0l53.27-30.75a1.68,1.68,0,0,0,.81-1.44V257.78a1.71,1.71,0,0,0-.82-1.47L292.36,225.6a1.64,1.64,0,0,0-1.64,0l-53.23,30.72a1.7,1.7,0,0,0-.84,1.45v61.47a1.64,1.64,0,0,0,.83,1.43l14.59,8.43c7.92,4,12.76-.71,12.76-5.4V263a1.52,1.52,0,0,1,1.55-1.53h6.75a1.53,1.53,0,0,1,1.53,1.53v60.69c0,10.56-5.76,16.63-15.77,16.63-3.08,0-5.51,0-12.28-3.33l-14-8.05a11.26,11.26,0,0,1-5.59-9.72V257.77a11.19,11.19,0,0,1,5.59-9.71l53.32-30.76a11.68,11.68,0,0,1,11.2,0l53.25,30.77a11.24,11.24,0,0,1,5.59,9.71v61.47a11.27,11.27,0,0,1-5.59,9.71l-53.25,30.76a11.2,11.2,0,0,1-5.61,1.49" transform="translate(0 0)"/><path class="cls-1" d="M308,318.88c-23.31,0-28.19-10.7-28.19-19.67a1.53,1.53,0,0,1,1.54-1.53h6.88a1.54,1.54,0,0,1,1.52,1.3c1,7,4.13,10.55,18.23,10.55,11.23,0,16-2.54,16-8.49,0-3.43-1.36-6-18.8-7.68-14.59-1.44-23.6-4.65-23.6-16.32,0-10.75,9.07-17.15,24.25-17.15,17.05,0,25.51,5.92,26.57,18.64a1.55,1.55,0,0,1-.41,1.19,1.59,1.59,0,0,1-1.13.49h-6.92a1.53,1.53,0,0,1-1.49-1.2c-1.67-7.37-5.69-9.73-16.64-9.73-12.25,0-13.68,4.27-13.68,7.47,0,3.88,1.68,5,18.21,7.2,16.37,2.17,24.15,5.24,24.15,16.75s-9.68,18.25-26.56,18.25m64.88-65.19h1.79a1.55,1.55,0,0,0,1.75-1.63,1.4,1.4,0,0,0-1.68-1.57H372.8v3.2Zm-2.17-5h4c1.36,0,4,0,4,3a2.65,2.65,0,0,1-2.17,2.83c1.59,0.11,1.69,1.15,1.91,2.61a11.24,11.24,0,0,0,.6,3h-2.44c-0.07-.53-0.44-3.47-0.44-3.63a1,1,0,0,0-1.2-1h-2v4.61h-2.23V248.72Zm-4.76,5.73a8.61,8.61,0,1,0,8.57-8.59,8.62,8.62,0,0,0-8.57,8.59m18.88,0a10.27,10.27,0,1,1-10.27-10.27,10.3,10.3,0,0,1,10.27,10.27" transform="translate(0 0)"/><path class="cls-1" d="M126.58,120.73a6.82,6.82,0,0,0-3.41-5.93L66.7,82.31a6.59,6.59,0,0,0-3.1-.89H63a6.71,6.71,0,0,0-3.12.89L3.42,114.81A6.87,6.87,0,0,0,0,120.74l0.12,87.52a3.36,3.36,0,0,0,1.69,2.95,3.23,3.23,0,0,0,3.39,0L38.78,192a6.89,6.89,0,0,0,3.41-5.92V145.17a6.8,6.8,0,0,1,3.41-5.91L59.89,131a6.78,6.78,0,0,1,3.41-.92,6.66,6.66,0,0,1,3.39.92L81,139.26a6.8,6.8,0,0,1,3.41,5.91v40.88A6.91,6.91,0,0,0,87.82,192l33.55,19.21a3.33,3.33,0,0,0,3.41,0,3.42,3.42,0,0,0,1.69-2.95ZM393.07,166.3a1.69,1.69,0,0,1-.85,1.47L372.82,179a1.71,1.71,0,0,1-1.7,0l-19.4-11.18a1.69,1.69,0,0,1-.85-1.47V143.91a1.72,1.72,0,0,1,.84-1.48l19.39-11.2a1.72,1.72,0,0,1,1.72,0l19.4,11.2a1.7,1.7,0,0,1,.85,1.48V166.3ZM398.31,0.43a3.41,3.41,0,0,0-5.07,3V90.08a2.39,2.39,0,0,1-3.58,2.07L375.51,84a6.81,6.81,0,0,0-6.82,0L312.2,116.6a6.81,6.81,0,0,0-3.41,5.89v65.23a6.83,6.83,0,0,0,3.41,5.91l56.49,32.63a6.85,6.85,0,0,0,6.82,0L432,193.62a6.84,6.84,0,0,0,3.41-5.91V25.15a6.84,6.84,0,0,0-3.51-6ZM586.44,143.32a6.82,6.82,0,0,0,3.39-5.9V121.61a6.82,6.82,0,0,0-3.4-5.9L530.3,83.13a6.82,6.82,0,0,0-6.84,0L467,115.73a6.81,6.81,0,0,0-3.41,5.91v65.2a6.84,6.84,0,0,0,3.44,5.93l56.12,32a6.8,6.8,0,0,0,6.69,0l33.95-18.87a3.41,3.41,0,0,0,0-5.93L507,167.38a3.38,3.38,0,0,1-1.72-2.95V144a3.38,3.38,0,0,1,1.71-3l17.68-10.2a3.37,3.37,0,0,1,3.4,0L545.72,141a3.4,3.4,0,0,1,1.71,2.95v16.08a3.4,3.4,0,0,0,5.12,2.95Z" transform="translate(0 0)"/><path class="cls-1" d="M526.05,140.27a1.29,1.29,0,0,1,1.31,0l10.84,6.25a1.31,1.31,0,0,1,.65,1.13v12.52a1.31,1.31,0,0,1-.65,1.13l-10.84,6.25a1.29,1.29,0,0,1-1.31,0l-10.83-6.25a1.3,1.3,0,0,1-.67-1.13V147.65a1.29,1.29,0,0,1,.65-1.13Z" transform="translate(0 0)"/><path class="cls-1" d="M214.3,83.45l-56.17,32.42a6.78,6.78,0,0,0-3.39,5.87v64.89a6.78,6.78,0,0,0,3.39,5.87L214.3,225a6.8,6.8,0,0,0,6.79,0l56.17-32.45a6.79,6.79,0,0,0,3.39-5.87V121.75a6.78,6.78,0,0,0-3.4-5.87L221.08,83.45a6.83,6.83,0,0,0-6.8,0" transform="translate(0 0)"/><g class="cls-2"><path class="cls-1" d="M337.41,110.37L179.12,32.78,98,198.35l158.28,77.59Z" transform="translate(0 0)"/></g><path class="cls-1" d="M156.12,190.76a6.8,6.8,0,0,0,2,1.75l48.19,27.83,8,4.61a6.81,6.81,0,0,0,3.91.89,6.94,6.94,0,0,0,1.33-.24l59.25-108.48a6.72,6.72,0,0,0-1.58-1.25L240.47,94.63,221,83.44a7.09,7.09,0,0,0-1.76-.71Z" transform="translate(0 0)"/><g class="cls-3"><path class="cls-1" d="M87.69,133.32L199.45,284.59,347.27,175.38,235.49,24.11Z" transform="translate(0 0)"/></g><path class="cls-1" d="M217,82.58a6.85,6.85,0,0,0-2.71.87l-56,32.33,60.4,110a6.74,6.74,0,0,0,2.41-.83l56.17-32.45a6.81,6.81,0,0,0,3.28-4.63L219,82.69a7.05,7.05,0,0,0-1.37-.14l-0.56,0" transform="translate(0 0)"/><g class="cls-4"><path class="cls-1" d="M158.29,82.56V225.8H280.53V82.56H158.29Z" transform="translate(0 0)"/></g></svg>